<svg xmlns="http://www.w3.org/2000/svg" xmlns:xlink="http://www.w3.org/1999/xlink" viewBox="0 0 334 304"><circle cx="164.869" cy="152.697" r="149.197" fill="#d9eef1"/><defs><circle id="a" cx="165.499" cy="152.697" r="149.197"/></defs><clipPath id="b"><use xlink:href="#a" overflow="visible"/></clipPath><g clip-path="url(#b)"><path fill="#f05c42" d="M8.701 189.504l110.949 2.623-20.902 40.434-75.682-4.487z"/><ellipse cx="216.664" cy="118.515" rx="7.064" ry="13.446" fill="#f1e4c4"/><ellipse cx="112.588" cy="121.234" rx="7.063" ry="13.446" fill="#f1e4c4"/><path fill="#e4d8b9" d="M135.545 170.521h50.084v56.089h-50.084z"/><path d="M216.352 119.418c0 33.903-11.529 61.386-51.882 61.386-40.352 0-51.881-27.482-51.881-61.386 0-33.902 8.101-61.385 51.881-61.385 43.781 0 51.882 27.483 51.882 61.385z" fill="#f8d4b0"/><path d="M112.589 115.368s-2.252-35.416-.383-46.633c1.87-11.218 16.898-28.152 16.898-28.152l11.378 6.965 12.501-6.99 15.383 6.881 11.682-7.364s6.702 6.741 8.572 8.299c1.87 1.558 12.775-5.921 12.775-5.921s17.029 17.673 16.534 33.55c-.491 15.875-1.577 43.415-1.577 43.415s3.057-23.811-16.412-38.638c-7.257-5.529-20.854 2.954-34.379 2.909-12.184-.041-24.311-9.076-31.695-5.531-15.391 7.387-21.277 37.21-21.277 37.21z" fill="#081928"/><path d="M202.953 124.82s-1.708 2.719-2.505 3.938c-2.559 3.901-8.571 6.657-13.906 6.657-5.337 0-11.355-2.76-13.91-6.665-.795-1.215-2.502-3.929-2.502-3.929s1.874-3.157 2.929-4.531c2.753-3.586 8.423-6.064 13.483-6.064 5.249 0 11.156 2.668 13.779 6.47.874 1.267 2.632 4.124 2.632 4.124z" fill="#fff"/><circle cx="187.062" cy="125.105" r="6.855" fill="#0c8485"/><circle cx="187.061" cy="125.105" r="2.914" fill="#231f20"/><circle cx="188.314" cy="122.278" r="1.66" fill="#fff"/><path d="M156.964 125.104s-1.708 2.72-2.505 3.939c-2.559 3.9-8.57 6.656-13.906 6.656-5.337 0-11.354-2.76-13.908-6.666-.796-1.215-2.503-3.93-2.503-3.93s1.875-3.157 2.929-4.53c2.753-3.585 8.423-6.063 13.482-6.063 5.25 0 11.156 2.667 13.781 6.47.873 1.268 2.63 4.124 2.63 4.124z" fill="#fff"/><circle cx="141.073" cy="125.39" r="6.855" fill="#0c8485"/><circle cx="141.073" cy="125.39" r="2.914" fill="#231f20"/><circle cx="142.326" cy="122.562" r="1.66" fill="#fff"/><path d="M165.125 164.415a31.76 31.76 0 0 1-9.222-1.374 1.871 1.871 0 0 1 1.086-3.58c9.509 2.882 16.857-.278 16.932-.311a1.869 1.869 0 0 1 2.464.957 1.868 1.868 0 0 1-.956 2.465c-.24.106-4.279 1.843-10.304 1.843z" fill="#c6bda3"/><path d="M199.94 110.07a1.23 1.23 0 0 1-.412-.07c-15.322-5.373-24.215-1.139-24.304-1.096a1.248 1.248 0 0 1-1.102-2.237c.398-.197 9.929-4.738 26.23.981a1.246 1.246 0 0 1-.412 2.422zm-72.019 0c-.514 0-.996-.321-1.176-.834a1.243 1.243 0 0 1 .764-1.587c16.299-5.716 25.83-1.178 26.229-.981a1.246 1.246 0 0 1-1.099 2.238c-.102-.051-9.085-4.245-24.306 1.094-.135.048-.274.07-.412.07z" fill="#081928"/><ellipse cx="163.218" cy="114.018" rx="6.128" ry="4.232" fill="#0f3041"/><g fill="#081928"><path d="M106.909 121.098h51.963v7.616h-51.963zm60.169 1.951h51.963v7.62h-51.963z"/><path d="M132.892 94.676c-14.327 0-25.983 11.654-25.983 25.979 0 14.327 11.656 25.984 25.983 25.984 14.326 0 25.98-11.657 25.98-25.984.001-14.325-11.654-25.979-25.98-25.979zm60.167 1.757c-14.326 0-25.982 11.656-25.982 25.984 0 14.324 11.656 25.978 25.982 25.978 14.327 0 25.982-11.654 25.982-25.978 0-14.328-11.655-25.984-25.982-25.984z"/><path d="M152.231 114.016h22.074v18.851h-22.074z"/></g><path d="M123.319 106.001s23.799.13 14.945-8.205c-8.857-8.335-28.641.092-37.413 5.959-11.004 7.358-17.775 25.07-20.38 30.279-2.604 5.21-18.233 12.699-18.233 12.699l5.6 16.995s21.262-10.868 26.177-8.204c4.916 2.663 31.256 6.643 35.684 6.381 4.428-.26 7.388-6.499 3.192-8.596-4.198-2.095-18.951-7.831-22.466-22.546-3.516-14.718 12.894-24.762 12.894-24.762zm81.061 0s-23.802.13-14.945-8.205 28.64.092 37.412 5.959c11.003 7.358 17.774 25.07 20.38 30.279 2.603 5.21 18.232 12.699 18.232 12.699l-5.6 16.995s-21.261-10.868-26.177-8.204c-4.917 2.663-31.257 6.643-35.685 6.381-4.427-.26-7.386-6.499-3.189-8.596 4.197-2.095 18.948-7.831 22.464-22.546 3.518-14.718-12.892-24.762-12.892-24.762z" fill="#e8b891"/><circle cx="132.892" cy="128.86" r="21.293" fill="#eeefef"/><path d="M132.892 154.844c-14.327 0-25.983-11.656-25.983-25.984 0-14.325 11.656-25.981 25.983-25.981 14.326 0 25.98 11.656 25.98 25.981.001 14.328-11.654 25.984-25.98 25.984zm0-42.587c-9.156 0-16.605 7.449-16.605 16.603 0 9.156 7.449 16.605 16.605 16.605 9.155 0 16.604-7.449 16.604-16.605 0-9.154-7.449-16.603-16.604-16.603z" fill="#0f3041"/><circle cx="193.059" cy="128.86" r="21.293" fill="#eeefef"/><path d="M193.059 154.844c-14.326 0-25.982-11.656-25.982-25.984 0-14.325 11.656-25.981 25.982-25.981 14.327 0 25.982 11.656 25.982 25.981 0 14.328-11.655 25.984-25.982 25.984zm0-42.587c-9.155 0-16.604 7.449-16.604 16.603 0 9.156 7.449 16.605 16.604 16.605 9.156 0 16.604-7.449 16.604-16.605.001-9.154-7.448-16.603-16.604-16.603z" fill="#0f3041"/><path d="M222.142 314.691H96.254v-110.1l18.696-12.464h20.592s1.742 19.318 24.435 19.318c22.695 0 25.505-19.318 25.505-19.318h36.66v122.564z" fill="#363a72"/><path d="M178.592 254.35l-10.846-10.403c-1.049-1.005-2.765-2.65-3.812-3.656l-2.193-2.105a2.66 2.66 0 0 0-3.742.068l-16.708 17.264a2.635 2.635 0 0 0 .069 3.726l2.193 2.105a2.665 2.665 0 0 0 3.744-.065l9.215-9.49v28.129a3.466 3.466 0 0 0 6.932 0v-28.57l9.384 9a2.65 2.65 0 0 0 3.734-.078l2.106-2.193a2.646 2.646 0 0 0-.076-3.732z" fill="#f26695"/><path d="M64.086 126.859c7.479-3.358 24.078 33.309 14.436 43.662-9.643 10.354-49.525 57.74-55.456 57.553-5.93-.186-33.687-18.585-14.365-41.063 19.32-22.476 47.906-56.794 55.385-60.152zm256.848 63.828l-110.951 1.376 5.947 40.436 90.638-4.488z" fill="#363a72"/><path d="M263.925 130.669c-7.478-3.358-21.989 34.076-13.334 43.04 8.657 8.965 50.634 52.866 55.977 54.302 5.344 1.435 37.099-19.058 14.366-41.063-22.733-22.004-49.53-52.921-57.009-56.279z" fill="#363a72"/></g><path fill="#363a72" d="M8.701 189.504l110.949 2.623-20.902 40.434-75.682-4.487z"/><path d="M64.086 126.859c7.479-3.358 24.078 33.309 14.436 43.662-9.643 10.354-49.525 57.74-55.456 57.553-5.93-.186-33.687-18.585-14.365-41.063 19.32-22.476 47.906-56.794 55.385-60.152zm256.848 63.828l-110.951 1.376 5.947 40.436 90.638-4.488z" fill="#363a72"/><path d="M263.925 130.669c-7.478-3.358-21.989 34.076-13.334 43.04 8.657 8.965 50.634 52.866 55.977 54.302 5.344 1.435 37.099-19.058 14.366-41.063-22.733-22.004-49.53-52.921-57.009-56.279z" fill="#363a72"/></svg>