<svg xmlns="http://www.w3.org/2000/svg" viewBox="0 0 403.537 304"><circle cx="225.369" cy="152.697" r="149.197" fill="#d9eef1"/><circle cx="199.796" cy="183.497" r="203.741" fill="none"/><path fill="#081928" d="M99.129 85.095H313.78v160.566H99.129z"/><path fill="#363a72" d="M108.424 107.912h193.524v117.467H108.424z"/><circle cx="211.955" cy="173.561" r="32.59" fill="#fff"/><path fill="#f6f4f4" d="M259.957 90.057h16.667v14.725h-16.667z"/><path fill="#081928" d="M260.994 92.841h14.591v10.327h-14.591z"/><path fill="#f6f4f4" d="M285.87 93.506l1.79-1.788 10.463 10.464-1.788 1.788z"/><path fill="#f6f4f4" d="M287.663 103.971l-1.788-1.788 10.465-10.464 1.788 1.788zM108.094 230.978h3.763v10.418h-3.763zm5.546 0h3.763v10.418h-3.763zm5.823 3.367h180.795v3.605H119.463zm182.571-4.222h5.116v11.743h-5.116z"/><path fill="#f26695" d="M241.131 173.814l-41.792 24.129v-48.258z"/><path d="M78.422 53.729c.138 0 .251.112.252.251l.003 1.486a.253.253 0 0 1-.251.252.253.253 0 0 1-.252-.251l-.003-1.486c0-.138.113-.251.251-.252z" fill="#5b6375"/><circle cx="105.644" cy="112.953" r="38.798" fill="#e54b4a"/><circle cx="105.644" cy="112.953" r="27.26" fill="#fff"/><circle cx="105.644" cy="112.953" r="19.243" fill="#e54b4a"/><circle cx="105.644" cy="112.953" r="9.178" fill="#fff"/><path d="M366.289 151.346h19.158c9.553 0 17.322 7.788 17.322 17.342v1.163c0 9.553-7.769 17.31-17.322 17.31h-6.201l3.889 10.287-14.817-10.287h-2.03c-9.553 0-17.31-7.757-17.31-17.31v-1.163c.001-9.553 7.758-17.342 17.311-17.342z" fill="#363a72"/><path d="M343.646 167.408c0-2.702.534-5.328 1.586-7.804a20.044 20.044 0 0 1 4.311-6.374 20.078 20.078 0 0 1 6.381-4.301 19.874 19.874 0 0 1 7.194-1.572v-1.047c0-14.831-12.122-26.916-26.953-26.916h-29.742c-14.831 0-26.953 12.085-26.953 26.916v1.805c0 14.831 12.122 26.974 26.953 26.974h9.626l-6.038 15.97 23.002-15.97h3.152c2.848 0 5.595-.448 8.177-1.277a19.948 19.948 0 0 1-.695-5.242v-1.162z" fill="#30bf78"/><circle cx="298.253" cy="147.881" r="5.842" fill="#fff"/><circle cx="318.822" cy="147.881" r="5.842" fill="#fff"/><circle cx="339.39" cy="147.881" r="5.842" fill="#fff"/><path d="M215.258 295.339v-4.328s-6.526-.625-10.796-8.542l-19.766-42.824s-1.166-2.384-1.088-3.796c0 0-.162-4.676 3.991-6.736 0 0 4.13-1.389 6.853 1.782 0 0 2.065 1.539 3.946 5.914l4.436 8.507 2.096 3.542.019-34.931.117-33.125s1.116-5.602 4.603-6.806c0 0 4.018-1.481 6.29 1.019 0 0 3.019 1.991 3.117 6.157v21.019l-.306 39.861s.229-14.583 1.11-16.875c0 0 2.348-5.903 7.107-5.347 0 0 4.895-.231 6.893 4.722 0 0 1.88 2.319.939 9.886l.078 7.753s-.157-12.917.509-13.982c.666-1.065 1.567-4.583 6.699-4.769 0 0 4.505.185 6.19 4.676 0 0 .666.231.666 4.352l.196 8.519s-.274-8.565.274-9.259c0 0 1.763-4.398 4.897-4.398 0 0 3.604-1.157 5.641 2.176 0 0 1.998 1.296 1.802 6.574l-.92 24.832s-1.421 20.971-9.893 29.902l-.059 4.525h-35.641z" fill="#e8b891"/><path d="M189.014 232.038s-2.953-1.351-3.948 1.52c0 0-1.03 1.453.206 3.717l3.914 8.176s1.305.676 2.953-.27c0 0 2.129-1.419 2.06-3.581 0 0 .378-1.351-1.27-4.19-.001 0-2.713-4.764-3.915-5.372z" fill="#ffeddc"/><ellipse cx="211.98" cy="181.267" rx="5.398" ry="5.713" fill="#ffeddc"/><path d="M248.837 299.643l-39.201-.041c-4.036-.004-7.335-3.31-7.33-7.346l.003-2.37c.004-4.036 3.31-7.335 7.346-7.33l39.201.041c4.036.004 7.335 3.31 7.33 7.346l-.003 2.37c-.005 4.036-3.31 7.334-7.346 7.33z" fill="#3c3b51"/><path d="M3.716 100.572l4.788 8.754a4.456 4.456 0 0 0-.432 5.181l-5.456 8.661c-.749 1.186-.212 2.201 1.186 2.257l23.57.931c1.4.055 3.249-.806 4.109-1.913l6.67-8.607 66.213-2.168c2.47-.005 4.475.813 4.47-1.658-.005-2.471-2.008-1.644-4.478-1.638l-65.427-1.858-5.119-8.016c-.752-1.181-2.515-2.149-3.916-2.149L5.04 98.337c-1.4 0-1.997 1.005-1.324 2.235z" fill="#dee3e0"/><path d="M7.437 112.229a4.45 4.45 0 0 0 .634 2.278l-5.456 8.661c-.749 1.186-.212 2.201 1.186 2.257l23.57.931c1.4.055 3.249-.806 4.109-1.913l6.67-8.607 66.213-2.168c2.412-.005 4.38.774 4.466-1.493L7.45 111.929c-.006.099-.013.199-.013.3z" fill="#a0a1a2"/></svg>