<svg xmlns="http://www.w3.org/2000/svg" xmlns:xlink="http://www.w3.org/1999/xlink" viewBox="0 0 330.037 304"><circle cx="151.869" cy="152.697" r="149.197" fill="#d9eef1"/><path d="M4.922 53.729c.138 0 .251.112.252.251l.003 1.486a.253.253 0 0 1-.251.252.253.253 0 0 1-.252-.251l-.003-1.486c0-.138.113-.251.251-.252z" fill="#5b6375"/><path d="M322.104 98.043a4.711 4.711 0 0 0 4.6-4.794l-.56-26.736c-.054-2.584-.141-6.813-.193-9.396l-.11-5.41c-.053-2.583-2.209-4.665-4.793-4.621l-42.745.699a4.69 4.69 0 0 0-4.603 4.775l.109 5.409c.053 2.584 2.21 4.667 4.795 4.629l27.939-.413c2.585-.038 4.744 2.045 4.798 4.629l.559 26.736a4.717 4.717 0 0 0 4.797 4.603l5.407-.11z" fill="#081928"/><circle cx="62.261" cy="196.045" r="12.075" fill="#081928"/><circle cx="85.561" cy="222.281" r="12.075" fill="#081928"/><circle cx="135.881" cy="128.69" r="12.075" fill="#081928"/><circle cx="165.655" cy="155.905" r="12.075" fill="#081928"/><circle cx="219.853" cy="87.377" r="12.075" fill="#081928"/><circle cx="249.223" cy="127.319" r="12.075" fill="#081928"/><circle cx="151.363" cy="158.516" r="149.197" fill="none"/><path fill="#081928" d="M245.763 125.876l69.111-74.212 6.586 6.134-69.11 74.212z"/><defs><circle id="a" cx="151.363" cy="152.642" r="149.197"/></defs><clipPath id="b"><use xlink:href="#a" overflow="visible"/></clipPath><path clip-path="url(#b)" fill="#081928" d="M16.207 243.839l-6.154-6.567 53.37-50.008 21.233 27.879 50.147-96.686 29.751 32.987 55.511-73.967 29.581 44.247 65.242-70.048 6.586 6.134-72.992 78.368-28.841-43.142-54.45 72.552-28.376-31.462-50.712 97.772-23.801-31.251z"/><path d="M164.168 313.259c0 6.574-5.33 11.902-11.904 11.902-6.573 0-11.902-5.329-11.902-11.902V210.355c0-6.574 5.329-11.903 11.902-11.903 6.574 0 11.904 5.329 11.904 11.903v102.904z" clip-path="url(#b)" fill="#549465"/><defs><circle id="c" cx="151.581" cy="151.667" r="149.197"/></defs><clipPath id="d"><use xlink:href="#c" overflow="visible"/></clipPath><g clip-path="url(#d)"><ellipse cx="206.597" cy="113.518" rx="6.657" ry="12.673" fill="#f1e4c4"/><ellipse cx="108.503" cy="116.081" rx="6.657" ry="12.673" fill="#f1e4c4"/><path fill="#f8d4b0" d="M129.845 162.536h51.597v52.865h-51.597z"/><path d="M206.303 114.37c0 31.954-10.867 57.857-48.9 57.857-38.034 0-48.9-25.903-48.9-57.857 0-31.955 7.636-57.858 48.9-57.858s48.9 25.902 48.9 57.858z" fill="#f8d4b0"/><path d="M108.503 110.551s-2.123-33.381-.36-43.953c1.762-10.573 15.926-26.534 15.926-26.534l10.726 6.564 10.607-6.588 13.324 6.485 12.186-6.941s8.667 6.354 10.429 7.822c1.762 1.469 10.867-5.58 10.867-5.58s16.05 16.658 15.586 31.621c-.465 14.964-1.488 40.922-1.488 40.922s2.883-22.444-15.468-36.419c-6.841-5.21-19.656 2.785-32.404 2.742-11.484-.039-22.913-8.554-29.872-5.213-14.51 6.964-20.059 35.072-20.059 35.072z" fill="#081928"/><path d="M193.674 119.46s-1.609 2.563-2.361 3.712c-2.412 3.677-8.079 6.274-13.107 6.274-5.03 0-10.702-2.603-13.11-6.283-.749-1.145-2.358-3.703-2.358-3.703s1.766-2.976 2.76-4.27c2.596-3.38 7.94-5.716 12.708-5.716 4.948 0 10.514 2.515 12.988 6.099.825 1.195 2.48 3.887 2.48 3.887z" fill="#fff"/><circle cx="178.696" cy="119.729" r="6.461" fill="#0c8485"/><circle cx="178.696" cy="119.729" r="2.746" fill="#231f20"/><circle cx="179.877" cy="117.064" r="1.565" fill="#fff"/><path d="M155.472 119.46s-2.196 3.497-3.221 5.063c-3.29 5.016-11.02 8.557-17.878 8.557-6.862 0-14.598-3.547-17.883-8.567-1.021-1.563-3.215-5.053-3.215-5.053s2.408-4.059 3.765-5.825c3.54-4.607 10.83-7.797 17.334-7.797 6.749.002 14.342 3.43 17.717 8.321 1.123 1.629 3.381 5.301 3.381 5.301z" fill="#fff"/><circle cx="135.04" cy="119.827" r="8.814" fill="#0c8485"/><circle cx="135.04" cy="119.827" r="3.746" fill="#231f20"/><circle cx="136.651" cy="116.191" r="2.134" fill="#fff"/><path d="M158.021 156.781c-2.566 0-5.516-.335-8.691-1.297a1.763 1.763 0 1 1 1.022-3.372c8.963 2.715 15.89-.262 15.959-.294a1.764 1.764 0 0 1 1.423 3.225c-.228.1-4.034 1.738-9.713 1.738z" fill="#c6bda3"/><path d="M190.836 105.558c-.129 0-.26-.021-.389-.066-14.44-5.063-22.823-1.073-22.905-1.032a1.175 1.175 0 1 1-1.04-2.108c.374-.187 9.359-4.466 24.723.924.612.215.935.885.72 1.498-.17.481-.624.784-1.109.784zm-67.881 0a1.175 1.175 0 0 1-.388-2.283c15.363-5.387 24.346-1.11 24.723-.924a1.174 1.174 0 0 1-1.036 2.109c-.097-.047-8.563-4-22.909 1.031a1.14 1.14 0 0 1-.39.067z" fill="#081928"/><path d="M215.996 301.552l-118.18-1V196.779l17.147-10.748h19.409s1.64 18.209 23.031 18.209 24.039-18.209 24.039-18.209h34.554v115.521z" fill="#363a72"/><path d="M213.842 186.031c5.82 0 23.104 1.37 25.845 16.055 2.741 14.685 11.356 98.292 11.356 98.292l-36.223 1.175c.001-.001-.978-97.129-.978-115.522z" fill="#2d3260"/><path d="M138.553 190.531a4.997 4.997 0 1 1-9.994 0v-43.206a4.997 4.997 0 1 1 9.994 0v43.206z" fill="#549465"/><circle cx="133.556" cy="118.848" r="26.224" opacity=".4" fill="#d3eadd"/><path d="M133.556 148.031c-16.091 0-29.184-13.092-29.184-29.183 0-16.092 13.092-29.184 29.184-29.184 16.091 0 29.183 13.092 29.183 29.184 0 16.091-13.092 29.183-29.183 29.183zm0-52.447c-12.828 0-23.264 10.435-23.264 23.264 0 12.827 10.436 23.264 23.264 23.264s23.264-10.437 23.264-23.264c0-12.828-10.436-23.264-23.264-23.264z" fill="#30bf78"/><path d="M99.72 205.032s4.398-10.08 4.084-15.782c-.638-11.619 5.045-22.029 10.333-33.425 5.288-11.396 20.989-15.687 23.589-12.582 2.599 3.104-1.93 9.263-6.501 9.97-4.571.707-5.924 3.352-5.576 6.445.349 3.092 17.473-1.01 16.979 4.898-.319 3.813-4.409 4.6-4.409 4.6s3.813-.695 3.579 3.679c-.233 4.375-5.25 3.831-5.25 3.831s4.052.428 3.942 4.429c-.11 3.999-3.886 2.873-5.703 2.682.508 1.294 4.06 1.974 3.149 5.545-.911 3.571-5.715 3.114-8.371 3.09-2.656-.026-12.974 18.555-12.974 18.555l-16.871-5.935z" fill="#e8b891"/><path d="M125.816 212.971c1.706-7.886-32.166-22.499-33.166-13.833-1.416 12.268-26.167 82.832-26.167 82.832l32.167 14.5c-.001 0 25.891-77.608 27.166-83.499z" fill="#2d3260"/><path d="M174.947 244.678l-10.222-9.805-3.592-3.446-2.068-1.984a2.508 2.508 0 0 0-3.526.064l-15.747 16.271a2.483 2.483 0 0 0 .064 3.512l2.067 1.984a2.512 2.512 0 0 0 3.529-.062l8.685-8.944v26.513a3.267 3.267 0 1 0 6.534 0v-26.928l8.845 8.482a2.5 2.5 0 0 0 3.52-.073l1.985-2.067a2.494 2.494 0 0 0-.074-3.517z" fill="#f26695"/></g></svg>