<svg xmlns="http://www.w3.org/2000/svg" viewBox="0 0 182 429"><path d="M57.698 381.156l-4.919 8.01s.801-6.054.958-9.009l-24.445 2.103-1.402 9.336-1.322-8.445-21.539 13.852 84.837 6.505-32.168-22.352zm13.147 41.36l19.127-18.67-85.185-4.555 25.786 23.158 2.892-8.292.988 9.423 33.623.066-1.65-7.973z" fill="#5755ff"/><path fill="#a46fd7" d="M169.875 106.145l-84.761 78.111 12.407 12.779-15.715-8.775-60.96 97.048 18.28 10.875-20.103-4.811-2.258 76.189zm-11.408 88.957l12.792-88.674L24.741 367.89l61.372-54.053-11.179-16.426 15.252 12.119 62.108-97.663-12.501-13.793 15.09 9.722 2.267-3.563.836-5.798-17.697-8.245z"/><path fill="#5755ff" d="M177.136 338.128L135.621 322.4l-4.967 11.568-1.065-12.199-41.309 11.685 4.64 10.893-11.788-7.683-32.222 27.122zm-24.594 29.964l24.744-29.552-127.131 28.716 54.361 12.438-.465-13.961 6.411 13.881 35.535-8.118-.778-15.826z"/><path fill="#fff" d="M29.45 198.004l21.494-14.83 3.699 5.362-21.494 14.83zm-6.64 4.581l.69-.476 3.7 5.362-.69.476zm12.69-24.582l50.951-35.154 3.7 5.361-50.952 35.154zm-16.174 11.16l10.805-7.456 3.7 5.362-10.806 7.455zm67.771-62.587l16.089-11.1 3.7 5.36-16.09 11.102zM38.83 159.878l45.585-31.452 3.7 5.361-45.586 31.452zm-24.177 16.681l18.812-12.98 3.7 5.362-18.812 12.98zm27.507-34.806l61.674-42.552 3.7 5.362-61.675 42.552zm-29.513 20.362l26.83-18.511 3.7 5.361-26.83 18.512zm32.84-38.485l61.68-42.557 3.7 5.362-61.68 42.557zM7.936 149.54l34.87-24.06 3.699 5.362-34.87 24.059zm43.56-45.883l56.34-38.872 3.7 5.361-56.341 38.873zM16.634 127.71l29.497-20.352 3.7 5.362-29.497 20.351zm-10.727 7.402l8.046-5.551 3.7 5.361-8.047 5.551zm46.236-47.729l50.998-35.186 3.7 5.362-50.999 35.186zM9.236 116.986L49.46 89.234l3.7 5.362-40.224 27.752zM20.611 93.31l81.04-55.912 3.699 5.361-81.04 55.913zm40.868-44.023l32.774-22.613 3.7 5.362L65.177 54.65zM34.663 67.788l24.133-16.65 3.699 5.362-24.133 16.65zm14.053-25.523l37.638-25.967 3.699 5.361-37.637 25.968zm11.377-23.677L78.954 5.575l3.7 5.362L63.792 23.95z"/></svg>