<svg xmlns="http://www.w3.org/2000/svg" viewBox="0 0 322.97 633"><ellipse cx="161.97" cy="598.415" rx="156" ry="29.082" fill="#353b75"/><path d="M51.16 438.97c.128-1.983.364-3.965.369-5.948.078-32.313.134-64.626.175-96.939.006-4.47-.188-8.199-5.326-10.926-10.75-5.706-20.756-12.849-28.506-22.391-13.873-17.08-15.185-36.009-6.693-55.825 6.887-16.07 17.905-29.127 30.802-40.704 3.869 5.613 7.844 11.139 12.954 15.731-11.739 9.96-21.196 21.662-26.548 36.231-7.055 19.207 2.486 33.574 19.794 44.468 2.406 1.514 3.581.926 3.521-2.124-.121-6.162.178-12.34-.13-18.489-.172-3.435.856-4.957 4.3-4.669.341.105.681.211 1.021.314 6.805 2.36 13.853 1.529 20.835 1.581 2.181.283 3.408 1.952 4.808 3.345 5.776 5.748 11.512 11.537 17.32 17.252.936.921 1.685 2.525 4.195 1.741-3.476-4.009-6.828-7.598-9.857-11.443-3.352-4.254-7.807-7.611-10.238-12.605 23.081-.031 46.162-.065 69.243-.086 1.304-.001 4.505-1.082 5.558.029-1.682 1.293-5.274 3.336-6.841 4.755-3.452 3.127-8.314 4.628-10.549 9.149-.491.059-1.108-.052-1.456.203-8.648 6.34-17.221 12.784-25.924 19.049-2.444 1.759-.714 2.638.375 3.732 5.491 5.519 10.926 11.099 16.555 16.474 2.463 2.352 4.218 5.621 7.854 6.595.031.997.137 1.999.082 2.992-1.109 19.946-2.195 39.894-3.415 59.833-.14 2.294-.057 4.111 1.733 5.857a964.32 964.32 0 0 1 19.053 19.11c1.764 1.82 2.835 2.077 4.714.032 5.858-6.377 11.91-12.58 17.965-18.773 1.754-1.793 2.395-3.64 2.249-6.224-1.187-20.94-2.199-41.889-3.264-62.835.877-.415 1.948-.632 2.602-1.275 6.94-6.824 13.708-13.826 20.755-20.535 2.897-2.758 4.226-4.552-.458-6.773-2.634-1.249-4.749-3.551-7.224-5.187-6.131-4.051-11.112-9.817-18.3-12.29-.354-2.055-2.127-2.836-3.543-3.928-4.315-3.328-8.642-6.641-12.964-9.96l74.027.032c-3.894 4.72-7.808 9.423-11.663 14.175-.748.922-2.755 1.846-1.43 3.132 1.463 1.42 2.642-.477 3.646-1.433 4.927-4.691 9.798-9.439 14.689-14.167 7.319-.02 14.699.842 21.854-1.53l.967-.303c3.124-.283 4.192.962 4.201 4.244.019 6.829-.87 13.717.22 20.893 4.531-2.105 7.944-4.73 11.255-7.438 15.784-12.909 18.886-28.528 9.379-46.602-5.876-11.172-13.794-20.706-23.222-29.035l13.025-15.263c16.039 14.731 29.624 31.13 34.452 53.057 3.643 16.546-.681 31.091-11.607 44.047-8.25 9.783-19.009 15.98-29.72 22.316-2.714 1.605-3.963 3.259-3.95 6.594.141 34.595.098 69.191.098 103.786 0 1.828-.068 3.656-.105 5.484l-212.907.03-.805-.563zm58.726-129.522a64.295 64.295 0 0 1-.349-.209l.354.203.354.196-.359-.19z" fill="#fdfdfd"/><path d="M55.071 176.598c-.315-.343-2.892-8.731-3.207-9.074l-.058.122c.29-2.004-1.003-3.464-1.824-5.047-11.386-21.953-22.737-43.923-34.298-65.784-1.809-3.421-1.64-5.124 2.074-6.761 9.385-4.137 18.655-8.54 27.919-12.946 28.864-13.729 57.718-27.477 86.527-41.322 2.752-1.323 3.85-.611 4.536 2.06 1.236 4.812 2.737 9.561 3.811 14.407.674 3.039 1.258 4.05 4.435 1.959 15.572-10.249 31.294-20.271 46.98-30.345 9.562-6.141 19.155-12.232 29.21-18.005-6.934 16.759-15.939 32.462-23.4 50.43 17.725-6.666 33.305-15.359 50.563-21.089-5.326 7.396-10.643 14.798-15.981 22.185-1.943 2.689-3.972 5.316-5.88 8.03-.624.887-1.647 1.855-.819 3.094.872 1.303 2.048.422 3.158.296 6.359-.726 12.727-1.375 19.806-2.126-4.169 7.13-7.877 13.767-11.897 20.209-1.741 2.79-1.543 3.934 1.838 4.61 12.823 2.564 25.577 5.485 38.433 7.859 3.901.72 4.518 2.167 3.493 5.595-5.315 17.79-10.532 35.609-15.751 53.427-.51 1.742-.802 3.548-1.191 5.323-1.132 1.365-.236 3.489-1.755 4.713-.878-1.231-3.32-5.336-3.947-7.909-2.225-10.231-4.667-20.422-6.56-30.714-.687-3.733-2.2-4.376-5.616-4.132-10.945.781-21.912 1.254-32.873 1.802-44.849 2.242-89.699 4.496-134.553 6.639-3.035.145-4.654 1.027-5.837 4.006-2.875 7.241-6.234 14.289-9.398 21.415-2.633 2.666-3.562 6.291-5.27 9.473" fill="#252630"/><path d="M51.157 438.968c70.969-.01 142.745.545 213.714.535l.155.157c-.035 2.105-.117 4.21-.131 6.316-.102 15.131-.194 30.263-.289 45.394-11.489-.044-22.98.041-34.465-.204-3.997-.085-4.955 1.618-5.361 5.258-1.483 13.297-3.27 26.562-5.026 39.828-1.911 14.435-3.907 28.859-5.869 43.287-.914 6.72-1.698 13.461-2.796 20.15-.653 3.977-.322 6.269 4.727 5.947 6.468-.412 12.989.09 19.473-.167 4.039-.16 3.824 2.319 3.537 4.838-.31 2.727 2.308 6.49-5.721 5.894-9.353-.694-23.356.248-32.62.016-4.069-.102-5.818.109-5.944-2.838-.078-1.825-.299-3.647-.301-5.47-.03-29.14-.208-58.282.069-87.419.076-7.975.016-15.933-.078-23.901-.053-4.467-1.124-5.994-8.524-4.956-18.676 2.621-37.6 2.222-56.31-.142-5.756-.727-7.41 1.17-7.474 5.143-.099 6.155-.103 12.313-.105 18.469-.007 31.305-.071 62.61.078 93.914.023 4.81-1.207 6.75-6.456 6.576-12.807-.424-25.634-.223-38.453-.273-.448-2.092-.719-8.113 0-9.488.364-.5.698-.422.698-.422 7.979-.599 15.9-.617 24.063-.744 1.66-.026 1.808-.684 1.542-2.292-.706-12.64-2.598-25.118-3.68-37.699-.747-8.682-2.55-17.197-3.442-25.868-.949-9.233-2.334-18.498-3.555-27.746-.726-5.499-2.032-10.938-2.47-16.452-.246-3.098-1.533-3.402-4.042-3.378-11.301.108-23.882-.625-35.185-.606-.078-17.265.318-34.392.241-51.657z" fill="#1b1b1b"/><path d="M55.071 175.953c-4.605 22.587 6.002 38.769 28.75 44.365 3.179 1.003 8.804.344 10.025.344-14.345 8.068-25.882 6.681-36.953 1.336v55.057l-1.022-.316.132-51.76c.003-1.326.129-2.684-1.069-3.658-5.11-4.591-9.084-10.117-12.954-15.731-2.103-9.018-2.981-17.918 1.012-26.781 2.099-4.657 4.823-8.657 8.813-11.81l.058-.121M261.795 168.419c1.519-1.224.623-3.348 1.755-4.713 10.938 7.421 16.261 22.446 12.743 36.154-.372 1.451-.959 2.831-.586 4.361a23795.88 23795.88 0 0 0-13.026 15.261c-2.091.657-1.962 2.324-1.956 4.048.062 17.963.086 35.926.12 53.889-.322.101-.645.202-.967.301-.015-16.418-.033-32.833-.044-49.248-.005-7.428-.019-7.489-6.861-5.164-5.352 1.819-10.807 1.218-16.235.838-1.651-.116-3.799-.672-1.957-3.246 23.863-5.925 33.998-23.455 27.56-47.566-.42-1.575-.375-3.274-.546-4.915z" fill="#e7c4a7"/><path d="M264.606 491.371c.095-15.131.188-30.263.289-45.394.012-1.829.075-3.657.114-5.486 1.027 1.081.854 2.441.855 3.75.006 14.372.011 28.744-.006 43.116-.001 1.446.314 3.036-1.252 4.014z" fill="#53599c"/><path d="M234.781 220.9c-1.842 2.574.306 3.13 1.957 3.246 5.428.38 10.882.981 16.235-.838 6.842-2.325 6.856-2.264 6.861 5.164.011 16.415.029 32.831.044 49.248-7.154 2.374-14.535 1.513-21.855 1.534-1.042-2.731-3.355-1.565-5.241-1.708-24.675-.011-49.351-.021-74.026-.033-.605.285.605-.285 0 0-1.054-1.11-4.253-.03-5.558-.028-23.081.02-46.162.055-69.243.085-2.158.27-4.829-1.324-6.228 1.71-6.981-.052-14.029.778-20.835-1.581v-56.055c11.07 5.345 23.958 4.978 34.966-.177-.388-1.467-6.234 1.034-8.038-.502 7.792 1.117 15.355-.773 22.988-1.748 11.373-2.071 21.287-6.872 29.119-15.567l15.883-4.604c5.039 1.303 10.087 1.805 15.159.17l15.834 4.611 2.983 2.65 1.088.986-.002-.002 1.024.878.111.075 1.831 1.238-.128-.147 1.151 1-.036-.029.977.752 2.143 1.212 1.927 1.053-.035-.016c12.147 6.852 25.336 8.236 38.944 7.423z" fill="#f7d3af"/><path d="M177.887 337.462c1.065 20.946 2.078 41.896 3.264 62.836.146 2.584-.495 4.431-2.249 6.224-6.055 6.193-12.107 12.395-17.965 18.773-1.879 2.046-2.95 1.788-4.714-.032a967.033 967.033 0 0 0-19.053-19.11c-1.79-1.746-1.874-3.563-1.733-5.857 1.22-19.939 2.306-39.887 3.415-59.833.055-.993-.051-1.994-.081-2.992l3.092-44.012 32.918-.042c.407 6.441.525 12.916 1.293 19.313.988 8.228.161 16.569 1.813 24.732z" fill="#f06795"/><path d="M177.887 337.462c-1.651-8.163-.825-16.504-1.813-24.731-.768-6.397-.886-12.872-1.293-19.313l.481-2.017c7.187 2.473 12.168 8.239 18.299 12.29 2.475 1.636 4.59 3.937 7.224 5.187 4.684 2.221 3.355 4.015.458 6.773-7.047 6.71-13.816 13.711-20.755 20.535-.653.644-1.724.861-2.601 1.276zM141.863 293.46l-3.092 44.012c-3.636-.975-5.392-4.243-7.855-6.595-5.629-5.376-11.064-10.955-16.555-16.474-1.089-1.095-2.818-1.973-.375-3.732 8.702-6.264 17.275-12.709 25.924-19.049.348-.255.964-.144 1.456-.203l.497 2.041z" fill="#e9e8e6"/><path d="M141.863 293.46l-.497-2.042c2.234-4.521 7.097-6.023 10.549-9.149 1.566-1.419 3.343-2.606 5.025-3.899l1.816-.856c4.322 3.319 8.649 6.633 12.964 9.961 1.416 1.092 3.189 1.873 3.543 3.928l-.481 2.017c-10.974.012-21.946.026-32.919.04z" fill="#cb5782"/><path d="M77.727 279.279c1.399-3.033 4.069-1.439 6.228-1.71 2.432 4.995 6.887 8.352 10.239 12.606 3.029 3.844 17.497 19.386 20.973 23.395-2.51.784-14.375-12.773-15.311-13.693-5.808-5.715-11.544-11.504-17.32-17.252-1.401-1.394-2.628-3.063-4.809-3.346zM232.782 277.546c1.886.143 4.199-1.023 5.241 1.708-4.89 4.726-9.761 9.475-14.688 14.166-1.004.956-19.705 21.5-21.168 20.081-1.325-1.286 18.205-20.858 18.953-21.779 3.854-4.753 7.768-9.456 11.662-14.176zM209.883 305.454l-.017-.015" fill="#e9e8e6"/><path d="M209.883 305.454l-1.007.991.99-1.006.017.015zM208.876 306.445l-1.002.996.006.006.996-1.002zM207.874 307.441l-.189.358.195-.352-.006-.006zM109.886 309.448l.359.191-.354-.196-.005.005z" fill="#e9e8e6"/><path d="M109.891 309.442l-.354-.203.349.209.005-.006z" fill="#e9e8e6"/><path d="M63.01 159.525c3.164-7.126 6.524-14.174 9.398-21.415 1.183-2.979 2.802-3.861 5.837-4.006 44.854-2.144 89.703-4.397 134.553-6.639 10.961-.548 21.928-1.021 32.873-1.802 3.417-.244 4.93.399 5.616 4.132 1.893 10.292 4.335 20.483 6.56 30.714l-.18 3.999c-13.109-14.692-28.65-16.326-45.785-10.987-1.276.25-2.55.504-3.827.748-8.514 1.628-15.733 6.304-23.397 9.933l-14.683 2.546c-6.928-1.053-13.835-1.131-20.708.44-4.961-1.6-10.08-2.365-15.244-2.892-1.674-1.008-3.586-1.381-5.314-2.431-10.693-6.496-21.953-11.38-34.865-10.818-10.674-1.097-20.184 1.585-28.435 8.588-.365.312-1.862 3.876-2.399-.11z" fill="#f5d2ae"/><path d="M211.883 153.521c17.135-5.339 32.677-3.705 45.785 10.987l.18-3.999c1.905 2.826 3.124 7.491 3.947 7.91.172 1.641.126 3.341.547 4.916 6.438 24.11-3.697 41.641-27.56 47.566-13.608.813-26.797-.571-38.944-7.424 5.74.255 10.443 4.677 16.46 4.327-.154-1.667-1.463-2.038-2.34-2.61-21.067-13.74-20.034-44.576-.888-57.824 1.403-.973 2.681-1.976 2.813-3.849zm27.886 6.245c-2.11-2.493-5.017-2.278-7.851-2.311-4.27.151-9.57.557-12.478 2.27-7.149 2.146-12.86 7.105-16.017 13.097-2.492 8.388-4.905 16.634.409 24.832.508 3.41 2.579 9.682 8.084 11.547 1.98.57 3.322 2.539 5.565 2.532.768.706 4.358 1.759 4.863 1.308 2.155.959 2.175 1.367 3.502 1.527 20.453 2.464 36.743-15.758 31.631-35.707-2.137-8.34-6.738-15.073-15.286-18.255l-2.422-.84zM57.74 168.998c1.707-3.182 2.637-6.807 5.27-9.473 2.034.422 2.034.422 2.401.11 8.251-7.003 17.761-9.685 28.435-8.588.601 2.608 2.956 2.299 4.768 2.802 28.24 7.83 30.857 37.428 17.987 53.711-2.873 3.635-6.403 6.148-10.025 8.691-1.947 1.367-1.746 2.124.233 2.966-7.633.975-15.196 2.865-22.988 1.748-22.748-5.597-33.355-21.78-28.75-44.366m21.228 35.089c1.201.812 4.979 1.153 4.979 1.153.629 1.155 2.034.872 3.228 1.076 11.492 1.961 23.115-2.835 29.102-13.116 6.781-11.645 4.961-22.188-1.528-32.508-2.162-3.439-5.637-7.659-10.424-8.045l-3.489-1.576s-4.625-1.169-7.272-1.092c-4.344-.196-8.782-.975-12.61 2.033-14.719 3.47-23.443 26.581-15.636 40.069 1.199 2.399 5.267 8.569 8.194 9.35 1.933.65 3.29 2.484 5.456 2.656z" fill="#444a55"/><path d="M106.809 219.217c-1.979-.842-2.179-1.599-.233-2.966 3.622-2.543 7.151-5.056 10.025-8.691 12.869-16.283 10.252-45.881-17.987-53.711-1.813-.503-4.167-.194-4.768-2.802 12.911-.562 24.172 4.321 34.865 10.818 1.729 1.05 3.641 1.423 5.315 2.431-.877.846-.369 1.615.364 1.997 3.718 1.937 5.321 5.16 6.137 9.097.282 1.36 1.453 2.536 2.218 3.797-1.539 3.635-.041 6.929 1.151 10.257-2.925 4.584-4.281 10.048-7.966 14.206-7.834 8.694-17.748 13.496-29.121 15.567zM211.883 153.521c-.132 1.873-1.41 2.877-2.814 3.848-19.147 13.248-20.18 44.084.888 57.824.878.572 2.186.943 2.34 2.61-6.017.35-10.719-4.072-16.46-4.327l.035.016-1.927-1.053-2.143-1.212-.977-.753.036.029-1.151-1 .128.146c-.337-.819-1.039-1.093-1.831-1.237l-.111-.075-1.024-.878.002.002-1.088-.986-2.983-2.65c-3.395-3.66-4.142-9.019-7.96-12.407 3.144-5.16 2.862-10.551 1.085-16.044 5.045-2.056 6.525-6.899 8.73-11.174 7.664-3.629 14.883-8.305 23.396-9.933 1.279-.243 2.553-.497 3.829-.746z" fill="#515760"/><path d="M175.929 175.375c1.777 5.493 2.059 10.884-1.085 16.045-1.847 3.384-5.277 5.169-7.874 7.795-5.072 1.635-10.12 1.134-15.159-.17-2.365-3.427-6.554-5.348-7.917-9.601-1.191-3.328-2.69-6.622-1.15-10.255 1.519-4.355 5.358-7.452 6.524-12.002 6.872-1.571 13.78-1.493 20.708-.44-.661 4.702 4.638 5.291 5.953 8.628zm-2.01 7.778c.042-7.31-5.72-12.726-13.539-12.725-6.979 0-12.528 5.339-12.523 12.049.005 6.632 6.321 12.833 13.232 12.991 7.109.161 12.79-5.291 12.83-12.315z" fill="#5f6770"/><path d="M143.895 189.444c1.362 4.253 5.552 6.175 7.917 9.601l-15.883 4.604c3.685-4.157 5.041-9.621 7.966-14.205zM166.97 199.215c2.598-2.626 6.027-4.411 7.874-7.795 3.818 3.388 4.564 8.747 7.96 12.406l-15.834-4.611zM188.008 208.413c.791.144 1.494.419 1.831 1.237l-1.831-1.237zM193.946 212.44l1.927 1.053-1.927-1.053zM189.711 209.504l1.151 1-1.151-1zM190.825 210.475zM186.873 207.461l1.024.878a798.9 798.9 0 0 0-1.024-.878zM185.787 206.477l1.088.986-1.088-.986z" fill="#444a55"/><path d="M149.269 167.188c-1.166 4.55-5.005 7.646-6.524 12.002-.766-1.263-1.937-2.439-2.219-3.799-.816-3.937-2.419-7.16-6.137-9.097-.734-.382-1.241-1.151-.364-1.997 5.164.526 10.283 1.291 15.244 2.891zM175.929 175.375c-1.315-3.337-6.614-3.927-5.952-8.628l14.682-2.546c-2.205 4.276-3.685 9.118-8.73 11.174z" fill="#252630"/><path d="M243.289 160.43c8.557 3.186 12.053 10.091 14.19 18.432 5.112 19.948-10.117 38.28-30.57 35.816-1.327-.16-3.688-.857-4.56-1.639 6.047-15.136 12.125-30.257 18.096-45.419.876-2.228 2.613-5.759 2.844-7.19z" fill="#439ec3"/><path d="M219.441 159.725c3.809-2.27 8.208-2.12 12.478-2.27.568 2.154-.755 3.849-1.473 5.647-6.139 15.381-12.344 30.736-18.529 46.099-1.869-.169-8.774-6.533-8.084-11.549 5.996-12.317 10.628-25.193 15.608-37.927z" fill="#f7fbfa"/><path d="M211.917 209.201c6.185-15.363 12.39-30.718 18.529-46.099.717-1.797 2.04-3.493 1.473-5.647 2.834.033 5.832-.079 7.85.878-.806 1.392-2.068 4.743-2.811 6.521-6.529 15.611-12.993 31.249-19.476 46.879-2.243.008-3.586-1.962-5.565-2.532zM219.441 159.725c-4.98 12.733-9.378 28.204-15.374 40.521-5.314-8.196-3.567-20.261-.643-27.424 3.326-7.405 8.868-10.951 16.017-13.097z" fill="#439ec3"/><path d="M217.482 211.733c6.483-15.63 12.947-31.268 19.476-46.879.744-1.778 2.06-5.835 2.811-6.521.808.281 3.095 1.991 3.898 2.269 0 0-2.345 4.79-3.222 7.017-5.971 15.163-12.049 30.283-18.096 45.419-.001.001-4.421-.598-4.867-1.305z" fill="#f7fbfa"/><path d="M101.656 160.247c4.792.392 8.261 4.606 10.424 8.045 6.489 10.32 8.309 20.862 1.528 32.508-5.987 10.281-17.61 15.077-29.102 13.116-1.194-.204-2.599.079-3.225-1.081.558-1.722 1.015-3.48 1.685-5.151 6.207-15.489 12.457-31.958 18.69-47.437z" fill="#439ec3"/><path d="M78.286 159.612c3.828-3.008 10.705-2.612 12.609-2.034.327 1.784-.692 3.216-1.299 4.734-6.232 15.58-12.496 31.148-18.752 46.718-1.927-1.864-8.136-5.381-8.032-11.459 5.667-12.446 10.78-25.117 15.474-37.959z" fill="#f7fbfa"/><path d="M70.844 209.031c6.255-15.571 12.52-31.138 18.752-46.718.607-1.517 1.357-3.917 1.299-4.734 2.648-.076 6.062.558 7.273 1.093-1.081 2.396-2.221 5.768-3.232 8.193-6.228 14.935-12.427 29.881-18.636 44.824-2.167-.173-3.524-2.007-5.456-2.658zM80.272 158.395c-4.693 12.842-11.955 28.84-17.622 41.286-7.807-13.486.36-38.348 17.622-41.286z" fill="#439ec3"/><path d="M76.299 211.688c6.209-14.943 12.408-29.889 18.636-44.824 1.011-2.425 2.151-5.797 3.232-8.193 1.164.525 2.756 1.054 3.916 1.576-6.236 15.476-12.91 31.948-19.118 47.437-.67 1.672-1.127 3.429-1.685 5.151l-4.981-1.147z" fill="#f7fbfa"/><path d="M173.919 183.153c-.04 7.024-5.721 12.476-12.831 12.314-6.911-.158-13.227-6.358-13.232-12.991-.005-6.709 5.544-12.048 12.523-12.049 7.819 0 13.582 5.416 13.54 12.726z" fill="#444a55"/></svg>