<svg xmlns="http://www.w3.org/2000/svg" xmlns:xlink="http://www.w3.org/1999/xlink" viewBox="0 0 288 288"><defs><path id="a" d="M0 0h288v288H0z"/></defs><clipPath id="b"><use xlink:href="#a" overflow="visible"/></clipPath><g clip-path="url(#b)"><linearGradient id="c" gradientUnits="userSpaceOnUse" x1="-151.465" y1="557.114" x2="-149.982" y2="555.631" gradientTransform="matrix(19 0 0 -11 2936.64 6299.055)"><stop offset="0" stop-color="#b38577"/><stop offset="1" stop-color="#a46b89"/></linearGradient><path fill="url(#c)" d="M58.157 186.004l28.187-14.835-22.253 16.319z"/><linearGradient id="d" gradientUnits="userSpaceOnUse" x1="-150.646" y1="563.035" x2="-149.163" y2="561.551" gradientTransform="matrix(33 0 0 -38 5193.637 21513.076)"><stop offset="0" stop-color="#5d74d1"/><stop offset="1" stop-color="#3c5dac"/></linearGradient><path fill="url(#d)" d="M277.718 140.016l-48.956 26.703 22.252-56.374z"/><linearGradient id="e" gradientUnits="userSpaceOnUse" x1="-147.845" y1="562.815" x2="-146.361" y2="561.332" gradientTransform="matrix(18 0 0 -28 2913.64 15855.066)"><stop offset="0" stop-color="#3c70b0"/><stop offset="1" stop-color="#3174ba"/></linearGradient><path fill="url(#e)" d="M277.718 140.016l-13.353-41.539-13.351 11.868z"/><linearGradient id="f" gradientUnits="userSpaceOnUse" x1="-139.389" y1="563.582" x2="-137.906" y2="562.098" gradientTransform="matrix(7 0 0 -30 1235.64 16955.076)"><stop offset="0" stop-color="#2d77bf"/><stop offset="1" stop-color="#2c9aca"/></linearGradient><path fill="url(#f)" d="M258.432 61.39l10.384-7.418-4.451 44.505z"/><linearGradient id="g" gradientUnits="userSpaceOnUse" x1="-150.351" y1="563.283" x2="-148.867" y2="561.8" gradientTransform="matrix(35 0 0 -30 5523.612 16955.076)"><stop offset="0" stop-color="#24b1d8"/><stop offset="1" stop-color="#37b3de"/></linearGradient><path fill="url(#g)" d="M316.289 64.356l-51.924 34.121 4.451-44.505z"/><linearGradient id="h" gradientUnits="userSpaceOnUse" x1="-151.057" y1="563.35" x2="-149.573" y2="561.867" gradientTransform="matrix(51 0 0 -35 7971.62 19803.076)"><stop offset="0" stop-color="#2885c4"/><stop offset="1" stop-color="#14c2db"/></linearGradient><path fill="url(#h)" d="M340.026 88.093l-75.661 10.384 13.353 41.539z"/><linearGradient id="i" gradientUnits="userSpaceOnUse" x1="-151.239" y1="562.61" x2="-149.756" y2="561.126" gradientTransform="matrix(51 0 0 -23 7971.62 13007.063)"><stop offset="0" stop-color="#31d9f8"/><stop offset="1" stop-color="#0ed3e3"/></linearGradient><path fill="url(#i)" d="M340.026 88.093l-75.661 10.384 51.924-34.121z"/><linearGradient id="j" gradientUnits="userSpaceOnUse" x1="-151.195" y1="563.387" x2="-149.712" y2="561.904" gradientTransform="matrix(35 0 0 -50 5454.612 28323.1)"><stop offset="0" stop-color="#c451a9"/><stop offset="1" stop-color="#ca35ae"/></linearGradient><path fill="url(#j)" d="M213.926 194.905l-51.923-40.055 31.154 74.176z"/><linearGradient id="k" gradientUnits="userSpaceOnUse" x1="-150.975" y1="560.281" x2="-149.492" y2="558.798" gradientTransform="matrix(16 0 0 -18 2481.64 10254.063)"><stop offset="0" stop-color="#ac8a98"/><stop offset="1" stop-color="#9a7b8e"/></linearGradient><path fill="url(#k)" d="M64.091 187.488l22.253-16.319 1.483 26.703z"/><linearGradient id="l" gradientUnits="userSpaceOnUse" x1="-149.748" y1="560.296" x2="-148.264" y2="558.813" gradientTransform="matrix(23 0 0 -19 3653.64 10816.063)"><stop offset="0" stop-color="#d449dd"/><stop offset="1" stop-color="#795acf"/></linearGradient><path fill="url(#l)" d="M213.926 194.905l14.836-28.186 19.285 14.835z"/><linearGradient id="m" gradientUnits="userSpaceOnUse" x1="-150.318" y1="562.384" x2="-148.835" y2="560.901" gradientTransform="matrix(33 0 0 -28 5193.637 15883.066)"><stop offset="0" stop-color="#6268cc"/><stop offset="1" stop-color="#442aa1"/></linearGradient><path fill="url(#m)" d="M248.047 181.554l-19.285-14.835 48.956-26.703z"/><linearGradient id="n" gradientUnits="userSpaceOnUse" x1="-151.083" y1="562.232" x2="-149.599" y2="560.749" gradientTransform="matrix(35 0 0 -28 5454.612 15892.066)"><stop offset="0" stop-color="#ca518c"/><stop offset="1" stop-color="#ff87bf"/></linearGradient><path fill="url(#n)" d="M213.926 194.905l-31.153-41.538-20.77 1.483z"/><linearGradient id="o" gradientUnits="userSpaceOnUse" x1="-150.638" y1="562.228" x2="-149.154" y2="560.745" gradientTransform="matrix(31 0 0 -28 4856.638 15892.066)"><stop offset="0" stop-color="#f285ac"/><stop offset="1" stop-color="#b6bac6"/></linearGradient><path fill="url(#o)" d="M213.926 194.905l14.836-28.186-45.989-13.352z"/><linearGradient id="p" gradientUnits="userSpaceOnUse" x1="-151.409" y1="563.318" x2="-149.925" y2="561.834" gradientTransform="matrix(46 0 0 -38 7151.62 21513.076)"><stop offset="0" stop-color="#6461ca"/><stop offset="1" stop-color="#746bb1"/></linearGradient><path fill="url(#p)" d="M228.762 166.719l22.252-56.374-68.241 43.022z"/><linearGradient id="q" gradientUnits="userSpaceOnUse" x1="-151.178" y1="561.222" x2="-149.694" y2="559.739" gradientTransform="matrix(16 0 0 -25 2481.64 14220.065)"><stop offset="0" stop-color="#ab89a1"/><stop offset="1" stop-color="#916d90"/></linearGradient><path fill="url(#q)" d="M65.574 224.576l-1.483-37.088 23.736 10.384z"/><linearGradient id="r" gradientUnits="userSpaceOnUse" x1="-151.783" y1="559.548" x2="-150.3" y2="558.064" gradientTransform="matrix(23 0 0 -18 3553.64 10272.063)"><stop offset="0" stop-color="#875a8a"/><stop offset="1" stop-color="#64168c"/></linearGradient><path fill="url(#r)" d="M65.574 224.576l22.253-26.704 11.868 14.836z"/><linearGradient id="s" gradientUnits="userSpaceOnUse" x1="-150.859" y1="561.674" x2="-149.375" y2="560.19" gradientTransform="matrix(16 0 0 -28 2496.64 15904.066)"><stop offset="0" stop-color="#906690"/><stop offset="1" stop-color="#845489"/></linearGradient><path fill="url(#s)" d="M110.08 212.708l-23.736-41.539 1.483 26.703z"/><linearGradient id="t" gradientUnits="userSpaceOnUse" x1="-152.144" y1="563.019" x2="-150.66" y2="561.536" gradientTransform="matrix(51 0 0 -39 7851.62 22108.076)"><stop offset="0" stop-color="#742f98"/><stop offset="1" stop-color="#580091"/></linearGradient><path fill="url(#t)" d="M110.08 212.708l-23.736-41.539 75.659-16.319z"/><linearGradient id="u" gradientUnits="userSpaceOnUse" x1="-150.627" y1="555.245" x2="-149.144" y2="553.762" gradientTransform="matrix(15 0 0 -10 2344.64 5752.055)"><stop offset="0" stop-color="#794687"/><stop offset="1" stop-color="#54008e"/></linearGradient><path fill="url(#u)" d="M110.08 212.708l-22.253-14.836 11.868 14.836z"/><linearGradient id="v" gradientUnits="userSpaceOnUse" x1="-152.246" y1="563.307" x2="-150.762" y2="561.824" gradientTransform="matrix(56 0 0 -50 8632.62 28323.1)"><stop offset="0" stop-color="#6f2891"/><stop offset="1" stop-color="#762c9d"/></linearGradient><path fill="url(#v)" d="M110.08 212.708l51.923-57.858 31.154 74.176z"/><linearGradient id="w" gradientUnits="userSpaceOnUse" x1="-150.06" y1="563.848" x2="-148.577" y2="562.365" gradientTransform="matrix(32 0 0 -34 5067.637 19188.076)"><stop offset="0" stop-color="#31d6f0"/><stop offset="1" stop-color="#46b1e8"/></linearGradient><path fill="url(#w)" d="M316.289 64.356l-22.253-50.439-25.22 40.055z"/><linearGradient id="x" gradientUnits="userSpaceOnUse" x1="-145.603" y1="564.317" x2="-144.119" y2="562.833" gradientTransform="matrix(15 0 0 -34 2483.64 19188.076)"><stop offset="0" stop-color="#5479d1"/><stop offset="1" stop-color="#6d20a7"/></linearGradient><path fill="url(#x)" d="M316.289 13.917h-22.253l22.253 50.439z"/><linearGradient id="y" gradientUnits="userSpaceOnUse" x1="-149.096" y1="564.049" x2="-147.613" y2="562.566" gradientTransform="matrix(27 0 0 -25 4319.64 14078.065)"><stop offset="0" stop-color="#6f47b5"/><stop offset="1" stop-color="#395fae"/></linearGradient><path fill="url(#y)" d="M334.093-23.171l-40.057 37.088h22.253z"/><linearGradient id="z" gradientUnits="userSpaceOnUse" x1="-152.889" y1="562.878" x2="-151.406" y2="561.395" gradientTransform="matrix(77 0 0 -38 11727.482 21561.076)"><stop offset="0" stop-color="#d8d870"/><stop offset="1" stop-color="#a46670"/></linearGradient><path fill="url(#z)" d="M32.938 237.928l16.318-47.473-114.231-8.901z"/><linearGradient id="A" gradientUnits="userSpaceOnUse" x1="-152.263" y1="561.896" x2="-150.779" y2="560.413" gradientTransform="matrix(22 0 0 -32 3378.64 18177.076)"><stop offset="0" stop-color="#52008e"/><stop offset="1" stop-color="#966276"/></linearGradient><path fill="url(#A)" d="M65.574 224.576l-16.318-34.121-16.318 47.473z"/><linearGradient id="B" gradientUnits="userSpaceOnUse" x1="-150.562" y1="534.226" x2="-149.078" y2="532.743" gradientTransform="matrix(10 0 0 -3 1553.64 1789.055)"><stop offset="0" stop-color="#ac9a87"/><stop offset="1" stop-color="#c9b17d"/></linearGradient><path fill="url(#B)" d="M58.157 186.004l5.934 1.484-14.835 2.967z"/><linearGradient id="C" gradientUnits="userSpaceOnUse" x1="-150.364" y1="561.61" x2="-148.88" y2="560.127" gradientTransform="matrix(11 0 0 -25 1706.64 14220.065)"><stop offset="0" stop-color="#9a6b9c"/><stop offset="1" stop-color="#a78079"/></linearGradient><path fill="url(#C)" d="M65.574 224.576l-16.318-34.121 14.835-2.967z"/><linearGradient id="D" gradientUnits="userSpaceOnUse" x1="-151.465" y1="557.114" x2="-149.982" y2="555.631" gradientTransform="matrix(19 0 0 -11 2936.64 6299.055)"><stop offset="0" stop-color="#b38577"/><stop offset="1" stop-color="#a46b89"/></linearGradient><path fill="url(#D)" d="M58.157 186.004l28.187-14.835-22.253 16.319z"/><linearGradient id="E" gradientUnits="userSpaceOnUse" x1="-150.646" y1="563.035" x2="-149.163" y2="561.551" gradientTransform="matrix(33 0 0 -38 5193.637 21513.076)"><stop offset="0" stop-color="#5d74d1"/><stop offset="1" stop-color="#3c5dac"/></linearGradient><path fill="url(#E)" d="M277.718 140.016l-48.956 26.703 22.252-56.374z"/><linearGradient id="F" gradientUnits="userSpaceOnUse" x1="-147.845" y1="562.815" x2="-146.361" y2="561.332" gradientTransform="matrix(18 0 0 -28 2913.64 15855.066)"><stop offset="0" stop-color="#3c70b0"/><stop offset="1" stop-color="#3174ba"/></linearGradient><path fill="url(#F)" d="M277.718 140.016l-13.353-41.539-13.351 11.868z"/><linearGradient id="G" gradientUnits="userSpaceOnUse" x1="-139.389" y1="563.582" x2="-137.906" y2="562.098" gradientTransform="matrix(7 0 0 -30 1235.64 16955.076)"><stop offset="0" stop-color="#2d77bf"/><stop offset="1" stop-color="#2c9aca"/></linearGradient><path fill="url(#G)" d="M258.432 61.39l10.384-7.418-4.451 44.505z"/><linearGradient id="H" gradientUnits="userSpaceOnUse" x1="-150.351" y1="563.283" x2="-148.867" y2="561.8" gradientTransform="matrix(35 0 0 -30 5523.612 16955.076)"><stop offset="0" stop-color="#24b1d8"/><stop offset="1" stop-color="#37b3de"/></linearGradient><path fill="url(#H)" d="M316.289 64.356l-51.924 34.121 4.451-44.505z"/><linearGradient id="I" gradientUnits="userSpaceOnUse" x1="-151.057" y1="563.35" x2="-149.573" y2="561.867" gradientTransform="matrix(51 0 0 -35 7971.62 19803.076)"><stop offset="0" stop-color="#2885c4"/><stop offset="1" stop-color="#14c2db"/></linearGradient><path fill="url(#I)" d="M340.026 88.093l-75.661 10.384 13.353 41.539z"/><linearGradient id="J" gradientUnits="userSpaceOnUse" x1="-151.239" y1="562.61" x2="-149.756" y2="561.126" gradientTransform="matrix(51 0 0 -23 7971.62 13007.063)"><stop offset="0" stop-color="#31d9f8"/><stop offset="1" stop-color="#0ed3e3"/></linearGradient><path fill="url(#J)" d="M340.026 88.093l-75.661 10.384 51.924-34.121z"/><linearGradient id="K" gradientUnits="userSpaceOnUse" x1="-151.195" y1="563.387" x2="-149.712" y2="561.904" gradientTransform="matrix(35 0 0 -50 5454.612 28323.1)"><stop offset="0" stop-color="#c451a9"/><stop offset="1" stop-color="#ca35ae"/></linearGradient><path fill="url(#K)" d="M213.926 194.905l-51.923-40.055 31.154 74.176z"/><linearGradient id="L" gradientUnits="userSpaceOnUse" x1="-150.975" y1="560.281" x2="-149.492" y2="558.798" gradientTransform="matrix(16 0 0 -18 2481.64 10254.063)"><stop offset="0" stop-color="#ac8a98"/><stop offset="1" stop-color="#9a7b8e"/></linearGradient><path fill="url(#L)" d="M64.091 187.488l22.253-16.319 1.483 26.703z"/><linearGradient id="M" gradientUnits="userSpaceOnUse" x1="-149.748" y1="560.296" x2="-148.264" y2="558.813" gradientTransform="matrix(23 0 0 -19 3653.64 10816.063)"><stop offset="0" stop-color="#d449dd"/><stop offset="1" stop-color="#795acf"/></linearGradient><path fill="url(#M)" d="M213.926 194.905l14.836-28.186 19.285 14.835z"/><linearGradient id="N" gradientUnits="userSpaceOnUse" x1="-150.318" y1="562.384" x2="-148.835" y2="560.901" gradientTransform="matrix(33 0 0 -28 5193.637 15883.066)"><stop offset="0" stop-color="#6268cc"/><stop offset="1" stop-color="#442aa1"/></linearGradient><path fill="url(#N)" d="M248.047 181.554l-19.285-14.835 48.956-26.703z"/><linearGradient id="O" gradientUnits="userSpaceOnUse" x1="-151.083" y1="562.232" x2="-149.599" y2="560.749" gradientTransform="matrix(35 0 0 -28 5454.612 15892.066)"><stop offset="0" stop-color="#ca518c"/><stop offset="1" stop-color="#ff87bf"/></linearGradient><path fill="url(#O)" d="M213.926 194.905l-31.153-41.538-20.77 1.483z"/><linearGradient id="P" gradientUnits="userSpaceOnUse" x1="-150.638" y1="562.228" x2="-149.154" y2="560.745" gradientTransform="matrix(31 0 0 -28 4856.638 15892.066)"><stop offset="0" stop-color="#f285ac"/><stop offset="1" stop-color="#b6bac6"/></linearGradient><path fill="url(#P)" d="M213.926 194.905l14.836-28.186-45.989-13.352z"/><linearGradient id="Q" gradientUnits="userSpaceOnUse" x1="-151.409" y1="563.318" x2="-149.925" y2="561.834" gradientTransform="matrix(46 0 0 -38 7151.62 21513.076)"><stop offset="0" stop-color="#6461ca"/><stop offset="1" stop-color="#746bb1"/></linearGradient><path fill="url(#Q)" d="M228.762 166.719l22.252-56.374-68.241 43.022z"/><linearGradient id="R" gradientUnits="userSpaceOnUse" x1="-151.178" y1="561.222" x2="-149.694" y2="559.739" gradientTransform="matrix(16 0 0 -25 2481.64 14220.065)"><stop offset="0" stop-color="#ab89a1"/><stop offset="1" stop-color="#916d90"/></linearGradient><path fill="url(#R)" d="M65.574 224.576l-1.483-37.088 23.736 10.384z"/><linearGradient id="S" gradientUnits="userSpaceOnUse" x1="-151.783" y1="559.548" x2="-150.3" y2="558.064" gradientTransform="matrix(23 0 0 -18 3553.64 10272.063)"><stop offset="0" stop-color="#875a8a"/><stop offset="1" stop-color="#64168c"/></linearGradient><path fill="url(#S)" d="M65.574 224.576l22.253-26.704 11.868 14.836z"/><linearGradient id="T" gradientUnits="userSpaceOnUse" x1="-150.859" y1="561.674" x2="-149.375" y2="560.19" gradientTransform="matrix(16 0 0 -28 2496.64 15904.066)"><stop offset="0" stop-color="#906690"/><stop offset="1" stop-color="#845489"/></linearGradient><path fill="url(#T)" d="M110.08 212.708l-23.736-41.539 1.483 26.703z"/><linearGradient id="U" gradientUnits="userSpaceOnUse" x1="-152.144" y1="563.019" x2="-150.66" y2="561.536" gradientTransform="matrix(51 0 0 -39 7851.62 22108.076)"><stop offset="0" stop-color="#742f98"/><stop offset="1" stop-color="#580091"/></linearGradient><path fill="url(#U)" d="M110.08 212.708l-23.736-41.539 75.659-16.319z"/><linearGradient id="V" gradientUnits="userSpaceOnUse" x1="-150.627" y1="555.245" x2="-149.144" y2="553.762" gradientTransform="matrix(15 0 0 -10 2344.64 5752.055)"><stop offset="0" stop-color="#794687"/><stop offset="1" stop-color="#54008e"/></linearGradient><path fill="url(#V)" d="M110.08 212.708l-22.253-14.836 11.868 14.836z"/><linearGradient id="W" gradientUnits="userSpaceOnUse" x1="-152.246" y1="563.307" x2="-150.762" y2="561.824" gradientTransform="matrix(56 0 0 -50 8632.62 28323.1)"><stop offset="0" stop-color="#6f2891"/><stop offset="1" stop-color="#762c9d"/></linearGradient><path fill="url(#W)" d="M110.08 212.708l51.923-57.858 31.154 74.176z"/><linearGradient id="X" gradientUnits="userSpaceOnUse" x1="-150.06" y1="563.848" x2="-148.577" y2="562.365" gradientTransform="matrix(32 0 0 -34 5067.637 19188.076)"><stop offset="0" stop-color="#31d6f0"/><stop offset="1" stop-color="#46b1e8"/></linearGradient><path fill="url(#X)" d="M316.289 64.356l-22.253-50.439-25.22 40.055z"/><linearGradient id="Y" gradientUnits="userSpaceOnUse" x1="-145.603" y1="564.317" x2="-144.119" y2="562.833" gradientTransform="matrix(15 0 0 -34 2483.64 19188.076)"><stop offset="0" stop-color="#5479d1"/><stop offset="1" stop-color="#6d20a7"/></linearGradient><path fill="url(#Y)" d="M316.289 13.917h-22.253l22.253 50.439z"/><linearGradient id="Z" gradientUnits="userSpaceOnUse" x1="-149.096" y1="564.049" x2="-147.613" y2="562.566" gradientTransform="matrix(27 0 0 -25 4319.64 14078.065)"><stop offset="0" stop-color="#6f47b5"/><stop offset="1" stop-color="#395fae"/></linearGradient><path fill="url(#Z)" d="M334.093-23.171l-40.057 37.088h22.253z"/><linearGradient id="aa" gradientUnits="userSpaceOnUse" x1="-152.889" y1="562.878" x2="-151.406" y2="561.395" gradientTransform="matrix(77 0 0 -38 11727.482 21561.076)"><stop offset="0" stop-color="#9a6b9c"/><stop offset="1" stop-color="#a78079"/></linearGradient><path fill="url(#aa)" d="M32.938 237.928l16.318-47.473-114.231-8.901z"/><linearGradient id="ab" gradientUnits="userSpaceOnUse" x1="-152.263" y1="561.896" x2="-150.779" y2="560.413" gradientTransform="matrix(22 0 0 -32 3378.64 18177.076)"><stop offset="0" stop-color="#52008e"/><stop offset="1" stop-color="#966276"/></linearGradient><path fill="url(#ab)" d="M65.574 224.576l-16.318-34.121-16.318 47.473z"/><linearGradient id="ac" gradientUnits="userSpaceOnUse" x1="-150.562" y1="534.226" x2="-149.078" y2="532.743" gradientTransform="matrix(10 0 0 -3 1553.64 1789.055)"><stop offset="0" stop-color="#ac9a87"/><stop offset="1" stop-color="#c9b17d"/></linearGradient><path fill="url(#ac)" d="M58.157 186.004l5.934 1.484-14.835 2.967z"/><linearGradient id="ad" gradientUnits="userSpaceOnUse" x1="-150.364" y1="561.61" x2="-148.88" y2="560.127" gradientTransform="matrix(11 0 0 -25 1706.64 14220.065)"><stop offset="0" stop-color="#9a6b9c"/><stop offset="1" stop-color="#a78079"/></linearGradient><path fill="url(#ad)" d="M65.574 224.576l-16.318-34.121 14.835-2.967z"/></g><g clip-path="url(#b)"><linearGradient id="ae" gradientUnits="userSpaceOnUse" x1="-101.401" y1="598.035" x2="-99.177" y2="595.811" gradientTransform="matrix(-8.8084 11.8067 -8.8167 -6.5777 4683.633 5197.794)"><stop offset="0" stop-color="#b38577"/><stop offset="1" stop-color="#a46b89"/></linearGradient><path fill="url(#ae)" d="M322.831 79.923l-37.414 12.96 35.074-6.103z"/><linearGradient id="af" gradientUnits="userSpaceOnUse" x1="-119.362" y1="575.581" x2="-117.138" y2="573.357" gradientTransform="matrix(-15.2989 20.5065 -30.4576 -22.723 15831.429 15698.293)"><stop offset="0" stop-color="#5d74d1"/><stop offset="1" stop-color="#3c5dac"/></linearGradient><path fill="url(#af)" d="M114.975 243.235l66.111-21.667-83.204-29.807z"/><linearGradient id="ag" gradientUnits="userSpaceOnUse" x1="-89.654" y1="580.224" x2="-87.43" y2="578" gradientTransform="matrix(-8.3448 11.1853 -22.4425 -16.7432 12353.485 10898.056)"><stop offset="0" stop-color="#3c70b0"/><stop offset="1" stop-color="#3174ba"/></linearGradient><path fill="url(#ag)" d="M114.975 243.235l-40.633-49.676 23.54-1.798z"/><linearGradient id="ah" gradientUnits="userSpaceOnUse" x1="10.755" y1="580.645" x2="12.979" y2="578.421" gradientTransform="matrix(-3.2452 4.3499 -24.0455 -17.9392 14013.125 10513.349)"><stop offset="0" stop-color="#2d77bf"/><stop offset="1" stop-color="#2c9aca"/></linearGradient><path fill="url(#ah)" d="M33.902 154.784l-16.131 3.025 56.571 35.75z"/><linearGradient id="ai" gradientUnits="userSpaceOnUse" x1="-120.305" y1="580.186" x2="-118.081" y2="577.962" gradientTransform="matrix(-16.2261 21.7493 -24.0455 -17.9392 12024.877 13177.813)"><stop offset="0" stop-color="#24b1d8"/><stop offset="1" stop-color="#37b3de"/></linearGradient><path fill="url(#ai)" d="M-2.746 211.344l77.088-17.785-56.571-35.75z"/><linearGradient id="aj" gradientUnits="userSpaceOnUse" x1="-130.696" y1="577.115" x2="-128.472" y2="574.89" gradientTransform="matrix(-23.6437 31.6918 -28.0531 -20.929 13172.866 16402.37)"><stop offset="0" stop-color="#2885c4"/><stop offset="1" stop-color="#14c2db"/></linearGradient><path fill="url(#aj)" d="M40.716 232.368l33.626-38.809 40.633 49.676z"/><linearGradient id="ak" gradientUnits="userSpaceOnUse" x1="-130.5" y1="584.289" x2="-128.686" y2="582.476" gradientTransform="matrix(-23.6437 31.6918 -18.4349 -13.7534 7725.771 12337.977)"><stop offset="0" stop-color="#31d9f8"/><stop offset="1" stop-color="#0ed3e3"/></linearGradient><path fill="url(#ak)" d="M40.716 232.368l33.626-38.809-77.088 17.785z"/><linearGradient id="al" gradientUnits="userSpaceOnUse" x1="-122.56" y1="572.569" x2="-120.336" y2="570.345" gradientTransform="matrix(-16.2261 21.7493 -40.0758 -29.8986 21168.846 19933.09)"><stop offset="0" stop-color="#c451a9"/><stop offset="1" stop-color="#ca35ae"/></linearGradient><path fill="url(#al)" d="M225.266 233.015l-12.04-84.279 67.476 95.519z"/><linearGradient id="am" gradientUnits="userSpaceOnUse" x1="-91.307" y1="585.352" x2="-89.083" y2="583.128" gradientTransform="matrix(-7.4176 9.9425 -14.4273 -10.7635 8064.7 7280.276)"><stop offset="0" stop-color="#ac8a98"/><stop offset="1" stop-color="#9a7b8e"/></linearGradient><path fill="url(#am)" d="M320.491 86.78l-35.074 6.103 31.056 25.319z"/><linearGradient id="an" gradientUnits="userSpaceOnUse" x1="-105.152" y1="583.992" x2="-102.928" y2="581.768" gradientTransform="matrix(-10.6629 14.2924 -15.2288 -11.3615 7971.243 8344.804)"><stop offset="0" stop-color="#d449dd"/><stop offset="1" stop-color="#795acf"/></linearGradient><path fill="url(#an)" d="M225.266 233.015l-44.18-11.447 4.423 31.265z"/><linearGradient id="ao" gradientUnits="userSpaceOnUse" x1="-118.903" y1="579.077" x2="-116.68" y2="576.853" gradientTransform="matrix(-15.2989 20.5065 -22.4425 -16.7432 11318.343 12332.275)"><stop offset="0" stop-color="#6268cc"/><stop offset="1" stop-color="#442aa1"/></linearGradient><path fill="url(#ao)" d="M185.509 252.833l-4.423-31.265-66.111 21.667z"/><linearGradient id="ap" gradientUnits="userSpaceOnUse" x1="-122.405" y1="578.687" x2="-120.181" y2="576.463" gradientTransform="matrix(-16.2261 21.7493 -22.4425 -16.7432 11204.634 12499.704)"><stop offset="0" stop-color="#ca518c"/><stop offset="1" stop-color="#ff87bf"/></linearGradient><path fill="url(#ap)" d="M225.266 233.015l-28.26-66.259 16.22-18.02z"/><linearGradient id="aq" gradientUnits="userSpaceOnUse" x1="-117.921" y1="578.669" x2="-115.697" y2="576.445" gradientTransform="matrix(-14.3717 19.2636 -22.4425 -16.7432 11481.772 12127.597)"><stop offset="0" stop-color="#f285ac"/><stop offset="1" stop-color="#b6bac6"/></linearGradient><path fill="url(#aq)" d="M225.266 233.015l-44.18-11.447 15.92-54.812z"/><linearGradient id="ar" gradientUnits="userSpaceOnUse" x1="-129.347" y1="576.01" x2="-127.123" y2="573.786" gradientTransform="matrix(-21.3257 28.5848 -30.4576 -22.723 14923.947 16914.99)"><stop offset="0" stop-color="#6461ca"/><stop offset="1" stop-color="#746bb1"/></linearGradient><path fill="url(#ar)" d="M181.086 221.568l-83.204-29.807 99.124-25.005z"/><linearGradient id="as" gradientUnits="userSpaceOnUse" x1="-91.609" y1="578.87" x2="-89.385" y2="576.645" gradientTransform="matrix(-7.4176 9.9425 -20.0379 -14.9493 11243.626 9651.897)"><stop offset="0" stop-color="#ab89a1"/><stop offset="1" stop-color="#916d90"/></linearGradient><path fill="url(#as)" d="M364.025 121.41l-43.534-34.63-4.018 31.422z"/><linearGradient id="at" gradientUnits="userSpaceOnUse" x1="-110.389" y1="583.735" x2="-108.165" y2="581.51" gradientTransform="matrix(-10.6629 14.2924 -14.4273 -10.7635 7581.439 7957.566)"><stop offset="0" stop-color="#875a8a"/><stop offset="1" stop-color="#64168c"/></linearGradient><path fill="url(#at)" d="M364.025 121.41l-47.552-3.208 9.576 24.356z"/><linearGradient id="au" gradientUnits="userSpaceOnUse" x1="-90.691" y1="577.641" x2="-88.467" y2="575.417" gradientTransform="matrix(-7.4176 9.9425 -22.4425 -16.7432 12586.055 10668.337)"><stop offset="0" stop-color="#906690"/><stop offset="1" stop-color="#845489"/></linearGradient><path fill="url(#au)" d="M318.833 152.231l-33.416-59.348 31.056 25.319z"/><linearGradient id="av" gradientUnits="userSpaceOnUse" x1="-133.174" y1="574.841" x2="-130.95" y2="572.617" gradientTransform="matrix(-23.6437 31.6918 -31.2591 -23.3209 15076.519 17706.031)"><stop offset="0" stop-color="#742f98"/><stop offset="1" stop-color="#580091"/></linearGradient><path fill="url(#av)" d="M318.833 152.231l-33.416-59.348-72.191 55.853z"/><linearGradient id="aw" gradientUnits="userSpaceOnUse" x1="-86.376" y1="598.834" x2="-84.152" y2="596.61" gradientTransform="matrix(-6.954 9.3211 -8.0152 -5.9797 4519.473 4503.304)"><stop offset="0" stop-color="#794687"/><stop offset="1" stop-color="#54008e"/></linearGradient><path fill="url(#aw)" d="M318.833 152.231l-2.36-34.029 9.576 24.356z"/><linearGradient id="ax" gradientUnits="userSpaceOnUse" x1="-134.833" y1="572.451" x2="-132.609" y2="570.227" gradientTransform="matrix(-25.9617 34.7988 -40.0758 -29.8986 19695.943 21907.465)"><stop offset="0" stop-color="#6f2891"/><stop offset="1" stop-color="#762c9d"/></linearGradient><path fill="url(#ax)" d="M318.833 152.231l-105.607-3.495 67.476 95.519z"/><linearGradient id="ay" gradientUnits="userSpaceOnUse" x1="-85.247" y1="580.514" x2="-83.023" y2="578.29" gradientTransform="matrix(-7.8812 10.5639 -25.6485 -19.1351 14181.112 12124.741)"><stop offset="0" stop-color="#3ca2cf"/><stop offset="1" stop-color="#668aca"/></linearGradient><path fill="url(#ay)" d="M17.771 157.809l-62.197-35.647-3.461 23.234z"/><linearGradient id="az" gradientUnits="userSpaceOnUse" x1="-117.115" y1="579.32" x2="-114.891" y2="577.096" gradientTransform="matrix(-14.8353 19.885 -27.2516 -20.3311 14025.762 14229.03)"><stop offset="0" stop-color="#31d6f0"/><stop offset="1" stop-color="#46b1e8"/></linearGradient><path fill="url(#az)" d="M-2.746 211.344l-45.141-65.948 65.658 12.413z"/><linearGradient id="aA" gradientUnits="userSpaceOnUse" x1="-74.174" y1="580.041" x2="-71.95" y2="577.817" gradientTransform="matrix(-6.954 9.3211 -27.2516 -20.3311 15224.328 12623.53)"><stop offset="0" stop-color="#5479d1"/><stop offset="1" stop-color="#6d20a7"/></linearGradient><path fill="url(#aA)" d="M-63.353 166.127l15.466-20.731 45.141 65.948z"/><linearGradient id="aB" gradientUnits="userSpaceOnUse" x1="-109.544" y1="585.925" x2="-107.32" y2="583.701" gradientTransform="matrix(-12.5173 16.778 -20.0379 -14.9493 10277.06 10709.252)"><stop offset="0" stop-color="#6f47b5"/><stop offset="1" stop-color="#395fae"/></linearGradient><path fill="url(#aB)" d="M-120.293 149.465l72.406-4.069-15.466 20.731z"/><linearGradient id="aC" gradientUnits="userSpaceOnUse" x1="-141.21" y1="574.714" x2="-138.986" y2="572.49" gradientTransform="matrix(-35.6974 47.8484 -30.4576 -22.723 12840.92 19786.875)"><stop offset="0" stop-color="#d8d870"/><stop offset="1" stop-color="#a46670"/></linearGradient><path fill="url(#aC)" d="M402.75 102.976l-68.383-27.357 68.697-114.394z"/><linearGradient id="aD" gradientUnits="userSpaceOnUse" x1="-109.724" y1="575.59" x2="-107.5" y2="573.366" gradientTransform="matrix(-10.1992 13.671 -25.6485 -19.1351 13999.603 12575.966)"><stop offset="0" stop-color="#52008e"/><stop offset="1" stop-color="#966276"/></linearGradient><path fill="url(#aD)" d="M364.025 121.41l-29.658-45.791 68.383 27.357z"/><linearGradient id="aE" gradientUnits="userSpaceOnUse" x1="-56.017" y1="681.947" x2="-53.793" y2="679.722" gradientTransform="matrix(-4.636 6.2141 -2.4045 -1.7939 1710.37 1642.252)"><stop offset="0" stop-color="#ac9a87"/><stop offset="1" stop-color="#c9b17d"/></linearGradient><path fill="url(#aE)" d="M322.831 79.923l-2.34 6.857 13.876-11.161z"/><linearGradient id="aF" gradientUnits="userSpaceOnUse" x1="-64.214" y1="579.455" x2="-61.99" y2="577.231" gradientTransform="matrix(-5.0996 6.8355 -20.0379 -14.9493 11602.821 9170.61)"><stop offset="0" stop-color="#9a6b9c"/><stop offset="1" stop-color="#a78079"/></linearGradient><path fill="url(#aF)" d="M364.025 121.41l-29.658-45.791-13.876 11.161z"/><linearGradient id="aG" gradientUnits="userSpaceOnUse" x1="-101.401" y1="598.035" x2="-99.177" y2="595.811" gradientTransform="matrix(-8.8084 11.8067 -8.8167 -6.5777 4683.633 5197.794)"><stop offset="0" stop-color="#b38577"/><stop offset="1" stop-color="#a46b89"/></linearGradient><path fill="url(#aG)" d="M322.831 79.923l-37.414 12.96 35.074-6.103z"/><linearGradient id="aH" gradientUnits="userSpaceOnUse" x1="-119.362" y1="575.581" x2="-117.138" y2="573.357" gradientTransform="matrix(-15.2989 20.5065 -30.4576 -22.723 15831.429 15698.293)"><stop offset="0" stop-color="#5d74d1"/><stop offset="1" stop-color="#3c5dac"/></linearGradient><path fill="url(#aH)" d="M114.975 243.235l66.111-21.667-83.204-29.807z"/><linearGradient id="aI" gradientUnits="userSpaceOnUse" x1="-89.654" y1="580.224" x2="-87.43" y2="578" gradientTransform="matrix(-8.3448 11.1853 -22.4425 -16.7432 12353.485 10898.056)"><stop offset="0" stop-color="#3c70b0"/><stop offset="1" stop-color="#3174ba"/></linearGradient><path fill="url(#aI)" d="M114.975 243.235l-40.633-49.676 23.54-1.798z"/><linearGradient id="aJ" gradientUnits="userSpaceOnUse" x1="10.755" y1="580.645" x2="12.979" y2="578.421" gradientTransform="matrix(-3.2452 4.3499 -24.0455 -17.9392 14013.125 10513.349)"><stop offset="0" stop-color="#2d77bf"/><stop offset="1" stop-color="#2c9aca"/></linearGradient><path fill="url(#aJ)" d="M33.902 154.784l-16.131 3.025 56.571 35.75z"/><linearGradient id="aK" gradientUnits="userSpaceOnUse" x1="-120.305" y1="580.186" x2="-118.081" y2="577.962" gradientTransform="matrix(-16.2261 21.7493 -24.0455 -17.9392 12024.877 13177.813)"><stop offset="0" stop-color="#24b1d8"/><stop offset="1" stop-color="#37b3de"/></linearGradient><path fill="url(#aK)" d="M-2.746 211.344l77.088-17.785-56.571-35.75z"/><linearGradient id="aL" gradientUnits="userSpaceOnUse" x1="-130.696" y1="577.115" x2="-128.472" y2="574.89" gradientTransform="matrix(-23.6437 31.6918 -28.0531 -20.929 13172.866 16402.37)"><stop offset="0" stop-color="#2885c4"/><stop offset="1" stop-color="#14c2db"/></linearGradient><path fill="url(#aL)" d="M40.716 232.368l33.626-38.809 40.633 49.676z"/><linearGradient id="aM" gradientUnits="userSpaceOnUse" x1="-130.5" y1="584.289" x2="-128.686" y2="582.476" gradientTransform="matrix(-23.6437 31.6918 -18.4349 -13.7534 7725.771 12337.977)"><stop offset="0" stop-color="#31d9f8"/><stop offset="1" stop-color="#0ed3e3"/></linearGradient><path fill="url(#aM)" d="M40.716 232.368l33.626-38.809-77.088 17.785z"/><linearGradient id="aN" gradientUnits="userSpaceOnUse" x1="-122.56" y1="572.569" x2="-120.336" y2="570.345" gradientTransform="matrix(-16.2261 21.7493 -40.0758 -29.8986 21168.846 19933.09)"><stop offset="0" stop-color="#c451a9"/><stop offset="1" stop-color="#ca35ae"/></linearGradient><path fill="url(#aN)" d="M225.266 233.015l-12.04-84.279 67.476 95.519z"/><linearGradient id="aO" gradientUnits="userSpaceOnUse" x1="-91.307" y1="585.352" x2="-89.083" y2="583.128" gradientTransform="matrix(-7.4176 9.9425 -14.4273 -10.7635 8064.7 7280.276)"><stop offset="0" stop-color="#ac8a98"/><stop offset="1" stop-color="#9a7b8e"/></linearGradient><path fill="url(#aO)" d="M320.491 86.78l-35.074 6.103 31.056 25.319z"/><linearGradient id="aP" gradientUnits="userSpaceOnUse" x1="-105.152" y1="583.992" x2="-102.928" y2="581.768" gradientTransform="matrix(-10.6629 14.2924 -15.2288 -11.3615 7971.243 8344.804)"><stop offset="0" stop-color="#d449dd"/><stop offset="1" stop-color="#795acf"/></linearGradient><path fill="url(#aP)" d="M225.266 233.015l-44.18-11.447 4.423 31.265z"/><linearGradient id="aQ" gradientUnits="userSpaceOnUse" x1="-118.903" y1="579.077" x2="-116.68" y2="576.853" gradientTransform="matrix(-15.2989 20.5065 -22.4425 -16.7432 11318.343 12332.275)"><stop offset="0" stop-color="#6268cc"/><stop offset="1" stop-color="#442aa1"/></linearGradient><path fill="url(#aQ)" d="M185.509 252.833l-4.423-31.265-66.111 21.667z"/><linearGradient id="aR" gradientUnits="userSpaceOnUse" x1="-122.405" y1="578.687" x2="-120.181" y2="576.463" gradientTransform="matrix(-16.2261 21.7493 -22.4425 -16.7432 11204.634 12499.704)"><stop offset="0" stop-color="#ca518c"/><stop offset="1" stop-color="#ff87bf"/></linearGradient><path fill="url(#aR)" d="M225.266 233.015l-28.26-66.259 16.22-18.02z"/><linearGradient id="aS" gradientUnits="userSpaceOnUse" x1="-117.921" y1="578.669" x2="-115.697" y2="576.445" gradientTransform="matrix(-14.3717 19.2636 -22.4425 -16.7432 11481.772 12127.597)"><stop offset="0" stop-color="#f285ac"/><stop offset="1" stop-color="#b6bac6"/></linearGradient><path fill="url(#aS)" d="M225.266 233.015l-44.18-11.447 15.92-54.812z"/><linearGradient id="aT" gradientUnits="userSpaceOnUse" x1="-129.347" y1="576.01" x2="-127.123" y2="573.786" gradientTransform="matrix(-21.3257 28.5848 -30.4576 -22.723 14923.947 16914.99)"><stop offset="0" stop-color="#6461ca"/><stop offset="1" stop-color="#746bb1"/></linearGradient><path fill="url(#aT)" d="M181.086 221.568l-83.204-29.807 99.124-25.005z"/><linearGradient id="aU" gradientUnits="userSpaceOnUse" x1="-91.609" y1="578.87" x2="-89.385" y2="576.645" gradientTransform="matrix(-7.4176 9.9425 -20.0379 -14.9493 11243.626 9651.897)"><stop offset="0" stop-color="#ab89a1"/><stop offset="1" stop-color="#916d90"/></linearGradient><path fill="url(#aU)" d="M364.025 121.41l-43.534-34.63-4.018 31.422z"/><linearGradient id="aV" gradientUnits="userSpaceOnUse" x1="-110.389" y1="583.735" x2="-108.165" y2="581.51" gradientTransform="matrix(-10.6629 14.2924 -14.4273 -10.7635 7581.439 7957.566)"><stop offset="0" stop-color="#875a8a"/><stop offset="1" stop-color="#64168c"/></linearGradient><path fill="url(#aV)" d="M364.025 121.41l-47.552-3.208 9.576 24.356z"/><linearGradient id="aW" gradientUnits="userSpaceOnUse" x1="-90.691" y1="577.641" x2="-88.467" y2="575.417" gradientTransform="matrix(-7.4176 9.9425 -22.4425 -16.7432 12586.055 10668.337)"><stop offset="0" stop-color="#906690"/><stop offset="1" stop-color="#845489"/></linearGradient><path fill="url(#aW)" d="M318.833 152.231l-33.416-59.348 31.056 25.319z"/><linearGradient id="aX" gradientUnits="userSpaceOnUse" x1="-133.174" y1="574.841" x2="-130.95" y2="572.617" gradientTransform="matrix(-23.6437 31.6918 -31.2591 -23.3209 15076.519 17706.031)"><stop offset="0" stop-color="#742f98"/><stop offset="1" stop-color="#580091"/></linearGradient><path fill="url(#aX)" d="M318.833 152.231l-33.416-59.348-72.191 55.853z"/><linearGradient id="aY" gradientUnits="userSpaceOnUse" x1="-86.376" y1="598.834" x2="-84.152" y2="596.61" gradientTransform="matrix(-6.954 9.3211 -8.0152 -5.9797 4519.473 4503.304)"><stop offset="0" stop-color="#794687"/><stop offset="1" stop-color="#54008e"/></linearGradient><path fill="url(#aY)" d="M318.833 152.231l-2.36-34.029 9.576 24.356z"/><linearGradient id="aZ" gradientUnits="userSpaceOnUse" x1="-134.833" y1="572.451" x2="-132.609" y2="570.227" gradientTransform="matrix(-25.9617 34.7988 -40.0758 -29.8986 19695.943 21907.465)"><stop offset="0" stop-color="#6f2891"/><stop offset="1" stop-color="#762c9d"/></linearGradient><path fill="url(#aZ)" d="M318.833 152.231l-105.607-3.495 67.476 95.519z"/><linearGradient id="ba" gradientUnits="userSpaceOnUse" x1="-85.247" y1="580.514" x2="-83.023" y2="578.29" gradientTransform="matrix(-7.8812 10.5639 -25.6485 -19.1351 14181.112 12124.741)"><stop offset="0" stop-color="#3ca2cf"/><stop offset="1" stop-color="#668aca"/></linearGradient><path fill="url(#ba)" d="M17.771 157.809l-62.197-35.647-3.461 23.234z"/><linearGradient id="bb" gradientUnits="userSpaceOnUse" x1="-117.115" y1="579.32" x2="-114.891" y2="577.096" gradientTransform="matrix(-14.8353 19.885 -27.2516 -20.3311 14025.762 14229.03)"><stop offset="0" stop-color="#31d6f0"/><stop offset="1" stop-color="#46b1e8"/></linearGradient><path fill="url(#bb)" d="M-2.746 211.344l-45.141-65.948 65.658 12.413z"/><linearGradient id="bc" gradientUnits="userSpaceOnUse" x1="-74.174" y1="580.041" x2="-71.95" y2="577.817" gradientTransform="matrix(-6.954 9.3211 -27.2516 -20.3311 15224.328 12623.53)"><stop offset="0" stop-color="#5479d1"/><stop offset="1" stop-color="#6d20a7"/></linearGradient><path fill="url(#bc)" d="M-63.353 166.127l15.466-20.731 45.141 65.948z"/><linearGradient id="bd" gradientUnits="userSpaceOnUse" x1="-109.544" y1="585.925" x2="-107.32" y2="583.701" gradientTransform="matrix(-12.5173 16.778 -20.0379 -14.9493 10277.06 10709.252)"><stop offset="0" stop-color="#6f47b5"/><stop offset="1" stop-color="#395fae"/></linearGradient><path fill="url(#bd)" d="M-120.293 149.465l72.406-4.069-15.466 20.731z"/><linearGradient id="be" gradientUnits="userSpaceOnUse" x1="-141.21" y1="574.714" x2="-138.986" y2="572.49" gradientTransform="matrix(-35.6974 47.8484 -30.4576 -22.723 12840.92 19786.875)"><stop offset="0" stop-color="#9a6b9c"/><stop offset="1" stop-color="#a78079"/></linearGradient><path fill="url(#be)" d="M402.75 102.976l-68.383-27.357 68.697-114.394z"/><linearGradient id="bf" gradientUnits="userSpaceOnUse" x1="-109.724" y1="575.59" x2="-107.5" y2="573.366" gradientTransform="matrix(-10.1992 13.671 -25.6485 -19.1351 13999.603 12575.966)"><stop offset="0" stop-color="#52008e"/><stop offset="1" stop-color="#966276"/></linearGradient><path fill="url(#bf)" d="M364.025 121.41l-29.658-45.791 68.383 27.357z"/><linearGradient id="bg" gradientUnits="userSpaceOnUse" x1="-56.017" y1="681.947" x2="-53.793" y2="679.722" gradientTransform="matrix(-4.636 6.2141 -2.4045 -1.7939 1710.37 1642.252)"><stop offset="0" stop-color="#ac9a87"/><stop offset="1" stop-color="#c9b17d"/></linearGradient><path fill="url(#bg)" d="M322.831 79.923l-2.34 6.857 13.876-11.161z"/><linearGradient id="bh" gradientUnits="userSpaceOnUse" x1="-64.214" y1="579.455" x2="-61.99" y2="577.231" gradientTransform="matrix(-5.0996 6.8355 -20.0379 -14.9493 11602.821 9170.61)"><stop offset="0" stop-color="#9a6b9c"/><stop offset="1" stop-color="#a78079"/></linearGradient><path fill="url(#bh)" d="M364.025 121.41l-29.658-45.791-13.876 11.161z"/></g><g clip-path="url(#b)"><radialGradient id="bi" cx="141.808" cy="126.705" r="121.949" gradientUnits="userSpaceOnUse"><stop offset=".328" stop-color="#fff"/><stop offset=".885" stop-color="#f8f8f9"/><stop offset="1" stop-color="#f6f6f7"/></radialGradient><path fill="url(#bi)" d="M203.186 208.058l-56.711-34.629-109.097 19.517-47.638-68.697.617-.428 47.363 68.302 108.903-19.482.121.074 56.168 34.297 90.31-161.66.654.366z"/></g><g clip-path="url(#b)"><radialGradient id="bj" cx="298.457" cy="172.198" r="37.767" gradientUnits="userSpaceOnUse"><stop offset=".328" stop-color="#fff"/><stop offset=".885" stop-color="#f8f8f9"/><stop offset="1" stop-color="#f6f6f7"/></radialGradient><path fill="url(#bj)" d="M249.33 191.783l-.562-.496 34.154-38.675.225.061 65 17.5-.196.724-64.775-17.44z"/></g><radialGradient id="bk" cx="152.102" cy="179.097" r="49.964" gradientUnits="userSpaceOnUse"><stop offset=".328" stop-color="#fff"/><stop offset=".885" stop-color="#f8f8f9"/><stop offset="1" stop-color="#f6f6f7"/></radialGradient><path fill="url(#bk)" d="M122.617 214.456l-31.691-11.067.246-.708 31.308 10.933 90.339-69.876.459.593z"/><path d="M259.844 223.885l-41.683 10.601-.36 1.266 42.964-10.926-.921-.941zm-3.923-4.005l-36.227 9.213-.359 1.266 37.508-9.539-.922-.94zm11.785 12.033l-52.617 13.381-.274.97 53.597-13.63-.706-.721zm-15.724-16.056l-30.749 7.819-.36 1.266 32.029-8.146-.92-.939zm11.802 12.05l-47.163 11.994-.359 1.266 48.442-12.319-.92-.941zm-23.601-24.1l-14.34 3.646-.36 1.266 15.621-3.972-.921-.94zm-3.923-4.005l-8.885 2.259-.359 1.267 10.165-2.586-.921-.94zm-3.94-4.023l-3.406.866-.36 1.266 4.687-1.192-.921-.94zm11.801 12.05l-19.818 5.04-.358 1.266 21.096-5.365-.92-.941zm3.921 4.006l-25.27 6.427-.36 1.266 26.551-6.753-.921-.94zm-206.357-3.329l20.425-5.194.176-.62-21.052 5.354.451.46zm1.921 1.962l17.752-4.515.176-.62-18.379 4.675.451.46zm-5.774-5.896l25.782-6.557.135-.476-26.263 6.679.346.354zm7.705 7.866l15.066-3.831.177-.62-15.694 3.991.451.46zm-5.783-5.904l23.109-5.877.177-.62-23.737 6.037.451.46zm11.564 11.81l7.026-1.787.177-.62-7.654 1.946.451.461zm1.923 1.963l4.353-1.107.177-.62-4.981 1.267.451.46zm1.93 1.97l1.669-.425.177-.62-2.296.584.45.461zm-5.782-5.904l9.711-2.47.176-.62-10.337 2.629.45.461zm-1.921-1.963l12.382-3.149.177-.62-13.01 3.309.451.46zm56.631 13.807l46.044-31.248c.15-.796.24-1.601.342-2.402l-48.745 33.081c.782.202 1.565.415 2.359.569zM87.716 220.8l61.585-41.795a35.477 35.477 0 0 0-.569-1.783l-62.46 42.39c.475.405.95.809 1.444 1.188zm7.223 4.386l55.77-37.849c-.043-.688-.082-1.374-.161-2.062l-57.464 39c.608.325 1.23.617 1.855.911zm10.354-74.089l-27.259 18.5A37.958 37.958 0 0 0 76.219 173l32.906-22.334c-1.278.08-2.556.222-3.832.431zm13.454.117l-45.574 30.93c-.158.8-.258 1.609-.365 2.42l48.325-32.799c-.794-.197-1.583-.402-2.386-.551zm-1.362 77.274l28.103-19.074a39.724 39.724 0 0 0 1.728-3.343l-33.579 22.789a39.49 39.49 0 0 0 3.748-.372zm23.664-64.589l-64.324 43.654c.277.533.562 1.06.863 1.586l64.617-43.854a43.049 43.049 0 0 0-1.156-1.386zm-13.013-9.703l-55.521 37.68c.036.694.06 1.387.135 2.079l57.27-38.864c-.618-.325-1.253-.604-1.884-.895zm-47.173 59.797c.373.474.74.949 1.133 1.401l64.394-43.701c-.274-.531-.58-1.049-.886-1.568l-64.641 43.868zm54.417-55.466l-61.416 41.682c.168.602.348 1.201.546 1.8l62.342-42.309a40.005 40.005 0 0 0-1.472-1.173z" fill="#fff"/></svg>