<?xml version="1.0" encoding="iso-8859-1"?>
<!-- Generator: Adobe Illustrator 21.0.0, SVG Export Plug-In . SVG Version: 6.00 Build 0)  -->
<svg version="1.1" id="Layer_1" xmlns="http://www.w3.org/2000/svg" xmlns:xlink="http://www.w3.org/1999/xlink" x="0px" y="0px"
	 viewBox="0 0 334 304" style="enable-background:new 0 0 334 304;" xml:space="preserve">
<circle style="fill:#D9EEF1;" cx="164.869" cy="152.697" r="149.197"/>
<g>
	<defs>
		<circle id="SVGID_1_" cx="165.499" cy="152.697" r="149.197"/>
	</defs>
	<clipPath id="SVGID_2_">
		<use xlink:href="#SVGID_1_"  style="overflow:visible;"/>
	</clipPath>
	<g style="clip-path:url(#SVGID_2_);">
		<polygon style="fill:#F05C42;" points="8.701,189.504 119.65,192.127 98.748,232.561 23.066,228.074 		"/>
		<g>
			<ellipse style="fill:#F1E4C4;" cx="216.664" cy="118.515" rx="7.064" ry="13.446"/>
			<ellipse style="fill:#F1E4C4;" cx="112.588" cy="121.234" rx="7.063" ry="13.446"/>
			<rect x="135.545" y="170.521" style="fill:#E4D8B9;" width="50.084" height="56.089"/>
			<path style="fill:#F8D4B0;" d="M216.352,119.418c0,33.903-11.529,61.386-51.882,61.386c-40.352,0-51.881-27.482-51.881-61.386
				c0-33.902,8.101-61.385,51.881-61.385C208.251,58.033,216.352,85.516,216.352,119.418z"/>
			<path style="fill:#081928;" d="M112.589,115.368c0,0-2.252-35.416-0.383-46.633c1.87-11.218,16.898-28.152,16.898-28.152
				l11.378,6.965l12.501-6.99l15.383,6.881l11.682-7.364c0,0,6.702,6.741,8.572,8.299c1.87,1.558,12.775-5.921,12.775-5.921
				s17.029,17.673,16.534,33.55c-0.491,15.875-1.577,43.415-1.577,43.415s3.057-23.811-16.412-38.638
				c-7.257-5.529-20.854,2.954-34.379,2.909c-12.184-0.041-24.311-9.076-31.695-5.531
				C118.475,85.545,112.589,115.368,112.589,115.368z"/>
			<g>
				<path style="fill:#FFFFFF;" d="M202.953,124.82c0,0-1.708,2.719-2.505,3.938c-2.559,3.901-8.571,6.657-13.906,6.657
					c-5.337,0-11.355-2.76-13.91-6.665c-0.795-1.215-2.502-3.929-2.502-3.929s1.874-3.157,2.929-4.531
					c2.753-3.586,8.423-6.064,13.483-6.064c5.249,0,11.156,2.668,13.779,6.47C201.195,121.963,202.953,124.82,202.953,124.82z"/>
				<g>
					<circle style="fill:#0C8485;" cx="187.062" cy="125.105" r="6.855"/>
					<circle style="fill:#231F20;" cx="187.061" cy="125.105" r="2.914"/>
					<circle style="fill:#FFFFFF;" cx="188.314" cy="122.278" r="1.66"/>
				</g>
			</g>
			<g>
				<path style="fill:#FFFFFF;" d="M156.964,125.104c0,0-1.708,2.72-2.505,3.939c-2.559,3.9-8.57,6.656-13.906,6.656
					c-5.337,0-11.354-2.76-13.908-6.666c-0.796-1.215-2.503-3.93-2.503-3.93s1.875-3.157,2.929-4.53
					c2.753-3.585,8.423-6.063,13.482-6.063c5.25,0,11.156,2.667,13.781,6.47C155.207,122.248,156.964,125.104,156.964,125.104z"/>
				<g>
					<circle style="fill:#0C8485;" cx="141.073" cy="125.39" r="6.855"/>
					<circle style="fill:#231F20;" cx="141.073" cy="125.39" r="2.914"/>
					<circle style="fill:#FFFFFF;" cx="142.326" cy="122.562" r="1.66"/>
				</g>
			</g>
			<path style="fill:#C6BDA3;" d="M165.125,164.415c-2.724,0-5.852-0.354-9.222-1.374c-0.988-0.3-1.545-1.345-1.246-2.333
				c0.298-0.989,1.341-1.549,2.332-1.247c9.509,2.882,16.857-0.278,16.932-0.311c0.944-0.417,2.047,0.012,2.464,0.957
				c0.417,0.944-0.01,2.048-0.956,2.465C175.189,162.678,171.15,164.415,165.125,164.415z"/>
			<path style="fill:#081928;" d="M199.94,110.07c-0.138,0-0.276-0.022-0.412-0.07c-15.322-5.373-24.215-1.139-24.304-1.096
				c-0.618,0.303-1.364,0.048-1.668-0.568c-0.305-0.618-0.05-1.365,0.566-1.669c0.398-0.197,9.929-4.738,26.23,0.981
				c0.649,0.227,0.991,0.938,0.764,1.587C200.938,109.749,200.456,110.07,199.94,110.07z"/>
			<path style="fill:#081928;" d="M127.921,110.07c-0.514,0-0.996-0.321-1.176-0.834c-0.229-0.649,0.113-1.36,0.764-1.587
				c16.299-5.716,25.83-1.178,26.229-0.981c0.618,0.304,0.87,1.051,0.566,1.669c-0.303,0.616-1.046,0.87-1.665,0.569
				c-0.102-0.051-9.085-4.245-24.306,1.094C128.198,110.048,128.059,110.07,127.921,110.07z"/>
		</g>
		<g>
			<ellipse style="fill:#0F3041;" cx="163.218" cy="114.018" rx="6.128" ry="4.232"/>
			<g>
				<g>
					<rect x="106.909" y="121.098" style="fill:#081928;" width="51.963" height="7.616"/>
					<rect x="167.078" y="123.049" style="fill:#081928;" width="51.963" height="7.62"/>
					<path style="fill:#081928;" d="M132.892,94.676c-14.327,0-25.983,11.654-25.983,25.979c0,14.327,11.656,25.984,25.983,25.984
						c14.326,0,25.98-11.657,25.98-25.984C158.873,106.33,147.218,94.676,132.892,94.676z"/>
					<path style="fill:#081928;" d="M193.059,96.433c-14.326,0-25.982,11.656-25.982,25.984c0,14.324,11.656,25.978,25.982,25.978
						c14.327,0,25.982-11.654,25.982-25.978C219.041,108.089,207.386,96.433,193.059,96.433z"/>
					<rect x="152.231" y="114.016" style="fill:#081928;" width="22.074" height="18.851"/>
				</g>
				<path style="fill:#E8B891;" d="M123.319,106.001c0,0,23.799,0.13,14.945-8.205c-8.857-8.335-28.641,0.092-37.413,5.959
					c-11.004,7.358-17.775,25.07-20.38,30.279c-2.604,5.21-18.233,12.699-18.233,12.699l5.6,16.995c0,0,21.262-10.868,26.177-8.204
					c4.916,2.663,31.256,6.643,35.684,6.381c4.428-0.26,7.388-6.499,3.192-8.596c-4.198-2.095-18.951-7.831-22.466-22.546
					C106.909,116.045,123.319,106.001,123.319,106.001z"/>
				<path style="fill:#E8B891;" d="M204.38,106.001c0,0-23.802,0.13-14.945-8.205c8.857-8.335,28.64,0.092,37.412,5.959
					c11.003,7.358,17.774,25.07,20.38,30.279c2.603,5.21,18.232,12.699,18.232,12.699l-5.6,16.995c0,0-21.261-10.868-26.177-8.204
					c-4.917,2.663-31.257,6.643-35.685,6.381c-4.427-0.26-7.386-6.499-3.189-8.596c4.197-2.095,18.948-7.831,22.464-22.546
					C220.79,116.045,204.38,106.001,204.38,106.001z"/>
				<g>
					<circle style="fill:#EEEFEF;" cx="132.892" cy="128.86" r="21.293"/>
					<path style="fill:#0F3041;" d="M132.892,154.844c-14.327,0-25.983-11.656-25.983-25.984c0-14.325,11.656-25.981,25.983-25.981
						c14.326,0,25.98,11.656,25.98,25.981C158.873,143.188,147.218,154.844,132.892,154.844z M132.892,112.257
						c-9.156,0-16.605,7.449-16.605,16.603c0,9.156,7.449,16.605,16.605,16.605c9.155,0,16.604-7.449,16.604-16.605
						C149.496,119.706,142.047,112.257,132.892,112.257z"/>
				</g>
				<g>
					<circle style="fill:#EEEFEF;" cx="193.059" cy="128.86" r="21.293"/>
					<path style="fill:#0F3041;" d="M193.059,154.844c-14.326,0-25.982-11.656-25.982-25.984c0-14.325,11.656-25.981,25.982-25.981
						c14.327,0,25.982,11.656,25.982,25.981C219.041,143.188,207.386,154.844,193.059,154.844z M193.059,112.257
						c-9.155,0-16.604,7.449-16.604,16.603c0,9.156,7.449,16.605,16.604,16.605c9.156,0,16.604-7.449,16.604-16.605
						C209.664,119.706,202.215,112.257,193.059,112.257z"/>
				</g>
			</g>
		</g>
		<path style="fill:#363A72;" d="M222.142,314.691H96.254v-110.1l18.696-12.464h20.592c0,0,1.742,19.318,24.435,19.318
			c22.695,0,25.505-19.318,25.505-19.318h36.66V314.691z"/>
		<path style="fill:#F26695;" d="M178.592,254.35l-10.846-10.403c-1.049-1.005-2.765-2.65-3.812-3.656l-2.193-2.105
			c-1.047-1.006-2.732-0.977-3.742,0.068l-16.708,17.264c-1.01,1.043-0.979,2.72,0.069,3.726l2.193,2.105
			c1.048,1.007,2.734,0.977,3.744-0.065l9.215-9.49v28.129c0,1.914,1.552,3.466,3.467,3.466c1.913,0,3.465-1.552,3.465-3.466v-28.57
			l9.384,9c1.049,1.005,2.729,0.97,3.734-0.078l2.106-2.193C179.675,257.035,179.639,255.355,178.592,254.35z"/>
		<path style="fill:#363A72;" d="M64.086,126.859c7.479-3.358,24.078,33.309,14.436,43.662
			c-9.643,10.354-49.525,57.74-55.456,57.553c-5.93-0.186-33.687-18.585-14.365-41.063
			C28.021,164.535,56.607,130.217,64.086,126.859z"/>
		<polygon style="fill:#363A72;" points="320.934,190.687 209.983,192.063 215.93,232.499 306.568,228.011 		"/>
		<path style="fill:#363A72;" d="M263.925,130.669c-7.478-3.358-21.989,34.076-13.334,43.04
			c8.657,8.965,50.634,52.866,55.977,54.302c5.344,1.435,37.099-19.058,14.366-41.063
			C298.201,164.944,271.404,134.027,263.925,130.669z"/>
	</g>
</g>
<polygon style="fill:#363A72;" points="8.701,189.504 119.65,192.127 98.748,232.561 23.066,228.074 "/>
<path style="fill:#363A72;" d="M64.086,126.859c7.479-3.358,24.078,33.309,14.436,43.662c-9.643,10.354-49.525,57.74-55.456,57.553
	c-5.93-0.186-33.687-18.585-14.365-41.063C28.021,164.535,56.607,130.217,64.086,126.859z"/>
<polygon style="fill:#363A72;" points="320.934,190.687 209.983,192.063 215.93,232.499 306.568,228.011 "/>
<path style="fill:#363A72;" d="M263.925,130.669c-7.478-3.358-21.989,34.076-13.334,43.04c8.657,8.965,50.634,52.866,55.977,54.302
	c5.344,1.435,37.099-19.058,14.366-41.063C298.201,164.944,271.404,134.027,263.925,130.669z"/>
</svg>
