<?xml version="1.0" encoding="iso-8859-1"?>
<!-- Generator: Adobe Illustrator 21.0.0, SVG Export Plug-In . SVG Version: 6.00 Build 0)  -->
<svg version="1.1" id="Layer_1" xmlns="http://www.w3.org/2000/svg" xmlns:xlink="http://www.w3.org/1999/xlink" x="0px" y="0px"
	 viewBox="0 0 330.037 304" style="enable-background:new 0 0 330.037 304;" xml:space="preserve">
<circle style="fill:#D9EEF1;" cx="151.869" cy="152.697" r="149.197"/>
<path style="fill:#5B6375;" d="M4.922,53.729L4.922,53.729c0.138,0,0.251,0.112,0.252,0.251l0.003,1.486
	c0,0.138-0.112,0.251-0.251,0.252l0,0c-0.138,0-0.251-0.112-0.252-0.251l-0.003-1.486C4.671,53.843,4.784,53.73,4.922,53.729z"/>
<path style="fill:#081928;" d="M322.104,98.043c2.584-0.053,4.653-2.21,4.6-4.794l-0.56-26.736
	c-0.054-2.584-0.141-6.813-0.193-9.396l-0.11-5.41c-0.053-2.583-2.209-4.665-4.793-4.621l-42.745,0.699
	c-2.584,0.043-4.656,2.191-4.603,4.775l0.109,5.409c0.053,2.584,2.21,4.667,4.795,4.629l27.939-0.413
	c2.585-0.038,4.744,2.045,4.798,4.629l0.559,26.736c0.054,2.584,2.213,4.655,4.797,4.603L322.104,98.043z"/>
<circle style="fill:#081928;" cx="62.261" cy="196.045" r="12.075"/>
<circle style="fill:#081928;" cx="85.561" cy="222.281" r="12.075"/>
<circle style="fill:#081928;" cx="135.881" cy="128.69" r="12.075"/>
<circle style="fill:#081928;" cx="165.655" cy="155.905" r="12.075"/>
<circle style="fill:#081928;" cx="219.853" cy="87.377" r="12.075"/>
<circle style="fill:#081928;" cx="249.223" cy="127.319" r="12.075"/>
<circle style="fill:none;" cx="151.363" cy="158.516" r="149.197"/>
<rect x="232.917" y="87.347" transform="matrix(0.6815 -0.7318 0.7318 0.6815 23.1098 236.7977)" style="fill:#081928;" width="101.41" height="9"/>
<g>
	<defs>
		<circle id="SVGID_1_" cx="151.363" cy="152.642" r="149.197"/>
	</defs>
	<clipPath id="SVGID_2_">
		<use xlink:href="#SVGID_1_"  style="overflow:visible;"/>
	</clipPath>
	<polygon style="clip-path:url(#SVGID_2_);fill:#081928;" points="16.207,243.839 10.053,237.272 63.423,187.264 84.656,215.143 
		134.803,118.457 164.554,151.444 220.065,77.477 249.646,121.724 314.888,51.676 321.474,57.81 248.482,136.178 219.641,93.036 
		165.191,165.588 136.815,134.126 86.103,231.898 62.302,200.647 	"/>
	<path style="clip-path:url(#SVGID_2_);fill:#549465;" d="M164.168,313.259c0,6.574-5.33,11.902-11.904,11.902l0,0
		c-6.573,0-11.902-5.329-11.902-11.902V210.355c0-6.574,5.329-11.903,11.902-11.903l0,0c6.574,0,11.904,5.329,11.904,11.903V313.259
		z"/>
</g>
<g>
	<defs>
		<circle id="SVGID_3_" cx="151.581" cy="151.667" r="149.197"/>
	</defs>
	<clipPath id="SVGID_4_">
		<use xlink:href="#SVGID_3_"  style="overflow:visible;"/>
	</clipPath>
	<g style="clip-path:url(#SVGID_4_);">
		<ellipse style="fill:#F1E4C4;" cx="206.597" cy="113.518" rx="6.657" ry="12.673"/>
		<ellipse style="fill:#F1E4C4;" cx="108.503" cy="116.081" rx="6.657" ry="12.673"/>
		<rect x="129.845" y="162.536" style="fill:#F8D4B0;" width="51.597" height="52.865"/>
		<path style="fill:#F8D4B0;" d="M206.303,114.37c0,31.954-10.867,57.857-48.9,57.857c-38.034,0-48.9-25.903-48.9-57.857
			c0-31.955,7.636-57.858,48.9-57.858S206.303,82.414,206.303,114.37z"/>
		<path style="fill:#081928;" d="M108.503,110.551c0,0-2.123-33.381-0.36-43.953c1.762-10.573,15.926-26.534,15.926-26.534
			l10.726,6.564l10.607-6.588l13.324,6.485l12.186-6.941c0,0,8.667,6.354,10.429,7.822c1.762,1.469,10.867-5.58,10.867-5.58
			s16.05,16.658,15.586,31.621c-0.465,14.964-1.488,40.922-1.488,40.922s2.883-22.444-15.468-36.419
			c-6.841-5.21-19.656,2.785-32.404,2.742c-11.484-0.039-22.913-8.554-29.872-5.213C114.052,82.443,108.503,110.551,108.503,110.551
			z"/>
		<g>
			<path style="fill:#FFFFFF;" d="M193.674,119.46c0,0-1.609,2.563-2.361,3.712c-2.412,3.677-8.079,6.274-13.107,6.274
				c-5.03,0-10.702-2.603-13.11-6.283c-0.749-1.145-2.358-3.703-2.358-3.703s1.766-2.976,2.76-4.27
				c2.596-3.38,7.94-5.716,12.708-5.716c4.948,0,10.514,2.515,12.988,6.099C192.019,116.768,193.674,119.46,193.674,119.46z"/>
			<g>
				<circle style="fill:#0C8485;" cx="178.696" cy="119.729" r="6.461"/>
				<circle style="fill:#231F20;" cx="178.696" cy="119.729" r="2.746"/>
				<circle style="fill:#FFFFFF;" cx="179.877" cy="117.064" r="1.565"/>
			</g>
		</g>
		<g>
			<path style="fill:#FFFFFF;" d="M155.472,119.46c0,0-2.196,3.497-3.221,5.063c-3.29,5.016-11.02,8.557-17.878,8.557
				c-6.862,0-14.598-3.547-17.883-8.567c-1.021-1.563-3.215-5.053-3.215-5.053s2.408-4.059,3.765-5.825
				c3.54-4.607,10.83-7.797,17.334-7.797c6.749,0.002,14.342,3.43,17.717,8.321C153.214,115.788,155.472,119.46,155.472,119.46z"/>
			<g>
				<circle style="fill:#0C8485;" cx="135.04" cy="119.827" r="8.814"/>
				<circle style="fill:#231F20;" cx="135.04" cy="119.827" r="3.746"/>
				<circle style="fill:#FFFFFF;" cx="136.651" cy="116.191" r="2.134"/>
			</g>
		</g>
		<path style="fill:#C6BDA3;" d="M158.021,156.781c-2.566,0-5.516-0.335-8.691-1.297c-0.932-0.282-1.458-1.267-1.176-2.198
			c0.282-0.931,1.265-1.459,2.198-1.174c8.963,2.715,15.89-0.262,15.959-0.294c0.891-0.393,1.931,0.012,2.324,0.901
			c0.392,0.891-0.011,1.931-0.901,2.324C167.506,155.143,163.7,156.781,158.021,156.781z"/>
		<path style="fill:#081928;" d="M190.836,105.558c-0.129,0-0.26-0.021-0.389-0.066c-14.44-5.063-22.823-1.073-22.905-1.032
			c-0.584,0.285-1.287,0.046-1.574-0.535c-0.287-0.582-0.047-1.287,0.534-1.573c0.374-0.187,9.359-4.466,24.723,0.924
			c0.612,0.215,0.935,0.885,0.72,1.498C191.775,105.255,191.321,105.558,190.836,105.558z"/>
		<path style="fill:#081928;" d="M122.955,105.558c-0.485,0-0.939-0.303-1.108-0.785c-0.215-0.613,0.107-1.283,0.72-1.498
			c15.363-5.387,24.346-1.11,24.723-0.924c0.582,0.286,0.821,0.991,0.534,1.573c-0.287,0.581-0.988,0.819-1.57,0.536
			c-0.097-0.047-8.563-4-22.909,1.031C123.215,105.538,123.084,105.558,122.955,105.558z"/>
		<path style="fill:#363A72;" d="M215.996,301.552l-118.18-1V196.779l17.147-10.748h19.409c0,0,1.64,18.209,23.031,18.209
			c21.391,0,24.039-18.209,24.039-18.209h34.554V301.552z"/>
		<path style="fill:#2D3260;" d="M213.842,186.031c5.82,0,23.104,1.37,25.845,16.055c2.741,14.685,11.356,98.292,11.356,98.292
			l-36.223,1.175C214.821,301.552,213.842,204.424,213.842,186.031z"/>
		<g>
			<path style="fill:none;stroke:#081928;stroke-width:6;stroke-miterlimit:10;" d="M133.556,144.237"/>
			<path style="fill:#549465;" d="M138.553,190.531c0,2.759-2.237,4.997-4.997,4.997l0,0c-2.761,0-4.997-2.238-4.997-4.997v-43.206
				c0-2.76,2.237-4.997,4.997-4.997l0,0c2.76,0,4.997,2.237,4.997,4.997V190.531z"/>
			<circle style="opacity:0.4;fill:#D3EADD;" cx="133.556" cy="118.848" r="26.224"/>
			<path style="fill:#30BF78;" d="M133.556,148.031c-16.091,0-29.184-13.092-29.184-29.183c0-16.092,13.092-29.184,29.184-29.184
				c16.091,0,29.183,13.092,29.183,29.184C162.739,134.939,149.647,148.031,133.556,148.031z M133.556,95.584
				c-12.828,0-23.264,10.435-23.264,23.264c0,12.827,10.436,23.264,23.264,23.264c12.828,0,23.264-10.437,23.264-23.264
				C156.82,106.02,146.384,95.584,133.556,95.584z"/>
		</g>
		<path style="fill:#E8B891;" d="M99.72,205.032c0,0,4.398-10.08,4.084-15.782c-0.638-11.619,5.045-22.029,10.333-33.425
			c5.288-11.396,20.989-15.687,23.589-12.582c2.599,3.104-1.93,9.263-6.501,9.97c-4.571,0.707-5.924,3.352-5.576,6.445
			c0.349,3.092,17.473-1.01,16.979,4.898c-0.319,3.813-4.409,4.6-4.409,4.6s3.813-0.695,3.579,3.679
			c-0.233,4.375-5.25,3.831-5.25,3.831s4.052,0.428,3.942,4.429c-0.11,3.999-3.886,2.873-5.703,2.682
			c0.508,1.294,4.06,1.974,3.149,5.545c-0.911,3.571-5.715,3.114-8.371,3.09c-2.656-0.026-12.974,18.555-12.974,18.555
			L99.72,205.032z"/>
		<path style="fill:#2D3260;" d="M125.816,212.971c1.706-7.886-32.166-22.499-33.166-13.833
			c-1.416,12.268-26.167,82.832-26.167,82.832l32.167,14.5C98.649,296.47,124.541,218.862,125.816,212.971z"/>
		<path style="fill:#F26695;" d="M174.947,244.678l-10.222-9.805c-0.988-0.947-2.605-2.498-3.592-3.446l-2.068-1.984
			c-0.987-0.948-2.574-0.92-3.526,0.064l-15.747,16.271c-0.952,0.982-0.924,2.564,0.064,3.512l2.067,1.984
			c0.987,0.948,2.576,0.921,3.529-0.062l8.685-8.944v26.513c0,1.804,1.462,3.267,3.267,3.267s3.267-1.463,3.267-3.267v-26.928
			l8.845,8.482c0.988,0.946,2.572,0.913,3.52-0.073l1.985-2.067C175.968,247.209,175.935,245.625,174.947,244.678z"/>
	</g>
</g>
</svg>
