<?xml version="1.0" encoding="iso-8859-1"?>
<!-- Generator: Adobe Illustrator 21.0.0, SVG Export Plug-In . SVG Version: 6.00 Build 0)  -->
<svg version="1.1" id="Layer_1" xmlns="http://www.w3.org/2000/svg" xmlns:xlink="http://www.w3.org/1999/xlink" x="0px" y="0px"
	 viewBox="0 0 403.537 304" style="enable-background:new 0 0 403.537 304;" xml:space="preserve">
<circle style="fill:#D9EEF1;" cx="225.369" cy="152.697" r="149.197"/>
<path style="fill:none;stroke:#081928;stroke-width:6;stroke-miterlimit:10;" d="M133.641,273.58"/>
<circle style="fill:none;" cx="199.796" cy="183.497" r="203.741"/>
<rect x="99.129" y="85.095" style="fill:#081928;" width="214.651" height="160.566"/>
<rect x="108.424" y="107.912" style="fill:#363A72;" width="193.524" height="117.467"/>
<circle style="fill:#FFFFFF;" cx="211.955" cy="173.561" r="32.59"/>
<rect x="259.957" y="90.057" style="fill:#F6F4F4;" width="16.667" height="14.725"/>
<rect x="260.994" y="92.841" style="fill:#081928;" width="14.591" height="10.327"/>
<rect x="290.735" y="90.443" transform="matrix(0.7071 -0.7071 0.7071 0.7071 16.3399 235.1323)" style="fill:#F6F4F4;" width="2.529" height="14.799"/>
<rect x="290.735" y="90.443" transform="matrix(-0.7071 -0.7071 0.7071 -0.7071 429.2899 373.5021)" style="fill:#F6F4F4;" width="2.529" height="14.799"/>
<rect x="108.094" y="230.978" style="fill:#F6F4F4;" width="3.763" height="10.418"/>
<rect x="113.64" y="230.978" style="fill:#F6F4F4;" width="3.763" height="10.418"/>
<rect x="119.463" y="234.345" style="fill:#F6F4F4;" width="180.795" height="3.605"/>
<rect x="302.034" y="230.123" style="fill:#F6F4F4;" width="5.116" height="11.743"/>
<polygon style="fill:#F26695;" points="241.131,173.814 199.339,197.943 199.339,149.685 "/>
<path style="fill:#5B6375;" d="M78.422,53.729L78.422,53.729c0.138,0,0.251,0.112,0.252,0.251l0.003,1.486
	c0,0.138-0.112,0.251-0.251,0.252l0,0c-0.138,0-0.251-0.112-0.252-0.251l-0.003-1.486C78.171,53.843,78.284,53.73,78.422,53.729z"/>
<circle style="fill:#E54B4A;" cx="105.644" cy="112.953" r="38.798"/>
<circle style="fill:#FFFFFF;" cx="105.644" cy="112.953" r="27.26"/>
<circle style="fill:#E54B4A;" cx="105.644" cy="112.953" r="19.243"/>
<circle style="fill:#FFFFFF;" cx="105.644" cy="112.953" r="9.178"/>
<path style="fill:#363A72;" d="M366.289,151.346h19.158c9.553,0,17.322,7.788,17.322,17.342v1.163c0,9.553-7.769,17.31-17.322,17.31
	h-6.201l3.889,10.287l-14.817-10.287h-2.03c-9.553,0-17.31-7.757-17.31-17.31v-1.163
	C348.979,159.135,356.736,151.346,366.289,151.346z"/>
<g>
	<g>
		<g>
			<path style="fill:#30BF78;" d="M343.646,167.408c0-2.702,0.534-5.328,1.586-7.804c1.014-2.387,2.465-4.531,4.311-6.374
				c1.845-1.842,3.992-3.289,6.381-4.301c2.29-0.97,4.707-1.498,7.194-1.572v-1.047c0-14.831-12.122-26.916-26.953-26.916h-29.742
				c-14.831,0-26.953,12.085-26.953,26.916v1.805c0,14.831,12.122,26.974,26.953,26.974h9.626l-6.038,15.97l23.002-15.97h3.152
				c2.848,0,5.595-0.448,8.177-1.277c-0.462-1.701-0.695-3.455-0.695-5.242V167.408z"/>
		</g>
	</g>
</g>
<circle style="fill:#FFFFFF;" cx="298.253" cy="147.881" r="5.842"/>
<circle style="fill:#FFFFFF;" cx="318.822" cy="147.881" r="5.842"/>
<circle style="fill:#FFFFFF;" cx="339.39" cy="147.881" r="5.842"/>
<path style="fill:#E8B891;" d="M215.258,295.339v-4.328c0,0-6.526-0.625-10.796-8.542l-19.766-42.824c0,0-1.166-2.384-1.088-3.796
	c0,0-0.162-4.676,3.991-6.736c0,0,4.13-1.389,6.853,1.782c0,0,2.065,1.539,3.946,5.914l4.436,8.507l2.096,3.542l0.019-34.931
	l0.117-33.125c0,0,1.116-5.602,4.603-6.806c0,0,4.018-1.481,6.29,1.019c0,0,3.019,1.991,3.117,6.157v21.019l-0.306,39.861
	c0,0,0.229-14.583,1.11-16.875c0,0,2.348-5.903,7.107-5.347c0,0,4.895-0.231,6.893,4.722c0,0,1.88,2.319,0.939,9.886l0.078,7.753
	c0,0-0.157-12.917,0.509-13.982c0.666-1.065,1.567-4.583,6.699-4.769c0,0,4.505,0.185,6.19,4.676c0,0,0.666,0.231,0.666,4.352
	l0.196,8.519c0,0-0.274-8.565,0.274-9.259c0,0,1.763-4.398,4.897-4.398c0,0,3.604-1.157,5.641,2.176c0,0,1.998,1.296,1.802,6.574
	l-0.92,24.832c0,0-1.421,20.971-9.893,29.902l-0.059,4.525H215.258z"/>
<path style="fill:#FFEDDC;" d="M189.014,232.038c0,0-2.953-1.351-3.948,1.52c0,0-1.03,1.453,0.206,3.717l3.914,8.176
	c0,0,1.305,0.676,2.953-0.27c0,0,2.129-1.419,2.06-3.581c0,0,0.378-1.351-1.27-4.19C192.928,237.41,190.216,232.646,189.014,232.038
	z"/>
<ellipse style="fill:#FFEDDC;" cx="211.98" cy="181.267" rx="5.398" ry="5.713"/>
<path style="fill:#3C3B51;" d="M248.837,299.643l-39.201-0.041c-4.036-0.004-7.335-3.31-7.33-7.346l0.003-2.37
	c0.004-4.036,3.31-7.335,7.346-7.33l39.201,0.041c4.036,0.004,7.335,3.31,7.33,7.346l-0.003,2.37
	C256.178,296.349,252.873,299.647,248.837,299.643z"/>
<path style="fill:#DEE3E0;" d="M3.716,100.572l4.788,8.754c-0.665,0.783-1.068,1.795-1.066,2.903
	c0.002,0.834,0.236,1.611,0.634,2.278l-5.456,8.661c-0.749,1.186-0.212,2.201,1.186,2.257l23.57,0.931
	c1.4,0.055,3.249-0.806,4.109-1.913l6.67-8.607l66.213-2.168c2.47-0.005,4.475,0.813,4.47-1.658
	c-0.005-2.471-2.008-1.644-4.478-1.638l-65.427-1.858l-5.119-8.016c-0.752-1.181-2.515-2.149-3.916-2.149L5.04,98.337
	C3.64,98.337,3.043,99.342,3.716,100.572z"/>
<path style="fill:#A0A1A2;" d="M7.437,112.229c0.002,0.834,0.236,1.611,0.634,2.278l-5.456,8.661
	c-0.749,1.186-0.212,2.201,1.186,2.257l23.57,0.931c1.4,0.055,3.249-0.806,4.109-1.913l6.67-8.607l66.213-2.168
	c2.412-0.005,4.38,0.774,4.466-1.493L7.45,111.929C7.444,112.028,7.437,112.128,7.437,112.229z"/>
</svg>
