<?xml version="1.0" encoding="iso-8859-1"?>
<!-- Generator: Adobe Illustrator 21.0.0, SVG Export Plug-In . SVG Version: 6.00 Build 0)  -->
<svg version="1.1" id="design" xmlns="http://www.w3.org/2000/svg" xmlns:xlink="http://www.w3.org/1999/xlink" x="0px" y="0px"
	 viewBox="0 0 182 429" style="enable-background:new 0 0 182 429;" xml:space="preserve">
<g>
	<g>
		<path style="fill:#5755FF;" d="M57.698,381.156l-4.919,8.01c0,0,0.801-6.054,0.958-9.009l-24.445,2.103l-1.402,9.336l-1.322-8.445
			L5.029,397.003l84.837,6.505L57.698,381.156z"/>
	</g>
	<g>
		<polygon style="fill:#5755FF;" points="70.845,422.516 89.972,403.846 4.787,399.291 30.573,422.449 33.465,414.157 
			34.453,423.58 68.076,423.646 66.426,415.673 		"/>
	</g>
</g>
<g>
	<g>
		<polygon style="fill:#A46FD7;" points="169.875,106.145 85.114,184.256 97.521,197.035 81.806,188.26 20.846,285.308 
			39.126,296.183 19.023,291.372 16.765,367.561 		"/>
	</g>
	<g>
		<polygon style="fill:#A46FD7;" points="158.467,195.102 171.259,106.428 24.741,367.89 86.113,313.837 74.934,297.411 
			90.186,309.53 152.294,211.867 139.793,198.074 154.883,207.796 157.15,204.233 157.986,198.435 140.289,190.19 		"/>
	</g>
</g>
<g>
	<g>
		<polygon style="fill:#5755FF;" points="177.136,338.128 135.621,322.4 130.654,333.968 129.589,321.769 88.28,333.454 
			92.92,344.347 81.132,336.664 48.91,363.786 		"/>
	</g>
	<g>
		<polygon style="fill:#5755FF;" points="152.542,368.092 177.286,338.54 50.155,367.256 104.516,379.694 104.051,365.733 
			110.462,379.614 145.997,371.496 145.219,355.67 		"/>
	</g>
</g>
<g>
	<g>
		<g>
			<g>
				
					<rect x="28.993" y="190.009" transform="matrix(0.8231 -0.5679 0.5679 0.8231 -102.3202 58.0723)" style="fill:#FFFFFF;" width="26.113" height="6.514"/>
			</g>
		</g>
		<g>
			<g>
				
					<rect x="24.589" y="201.768" transform="matrix(0.8231 -0.5679 0.5679 0.8231 -112.0131 50.4742)" style="fill:#FFFFFF;" width="0.838" height="6.514"/>
			</g>
		</g>
		<g>
			<g>
				
					<rect x="31.876" y="159.846" transform="matrix(0.8231 -0.5679 0.5679 0.8231 -81.5139 64.5359)" style="fill:#FFFFFF;" width="61.902" height="6.514"/>
			</g>
		</g>
		<g>
			<g>
				
					<rect x="20.017" y="184.856" transform="matrix(0.8231 -0.5679 0.5679 0.8231 -102.1299 48.3753)" style="fill:#FFFFFF;" width="13.128" height="6.514"/>
			</g>
		</g>
		<g>
			<g>
				
					<rect x="87.218" y="120.446" transform="matrix(0.8231 -0.5679 0.5679 0.8231 -53.0936 76.968)" style="fill:#FFFFFF;" width="19.547" height="6.514"/>
			</g>
		</g>
		<g>
			<g>
				
					<rect x="35.782" y="143.572" transform="matrix(0.8231 -0.5679 0.5679 0.8231 -72.1574 62.0242)" style="fill:#FFFFFF;" width="55.383" height="6.514"/>
			</g>
		</g>
		<g>
			<g>
				
					<rect x="14.484" y="169.49" transform="matrix(0.8231 -0.5679 0.5679 0.8231 -93.5217 45.2771)" style="fill:#FFFFFF;" width="22.855" height="6.514"/>
			</g>
		</g>
		<g>
			<g>
				
					<rect x="37.383" y="119.898" transform="matrix(0.8231 -0.5679 0.5679 0.8231 -56.7001 64.2948)" style="fill:#FFFFFF;" width="74.929" height="6.514"/>
			</g>
		</g>
		<g>
			<g>
				
					<rect x="11.616" y="152.281" transform="matrix(0.8231 -0.5679 0.5679 0.8231 -83.3943 43.3697)" style="fill:#FFFFFF;" width="32.597" height="6.514"/>
			</g>
		</g>
		<g>
			<g>
				
					<rect x="40.709" y="101.773" transform="matrix(0.8231 -0.5679 0.5679 0.8231 -45.8175 62.9794)" style="fill:#FFFFFF;" width="74.937" height="6.514"/>
			</g>
		</g>
		<g>
			<g>
				
					<rect x="6.04" y="136.931" transform="matrix(0.8231 -0.5679 0.5679 0.8231 -74.799 40.2613)" style="fill:#FFFFFF;" width="42.364" height="6.514"/>
			</g>
		</g>
		<g>
			<g>
				
					<rect x="47.291" y="83.642" transform="matrix(0.8231 -0.5679 0.5679 0.8231 -34.93 61.6678)" style="fill:#FFFFFF;" width="68.449" height="6.514"/>
			</g>
		</g>
		<g>
			<g>
				
					<rect x="15.316" y="116.955" transform="matrix(0.8231 -0.5679 0.5679 0.8231 -62.391 40.1416)" style="fill:#FFFFFF;" width="35.836" height="6.514"/>
			</g>
		</g>
		<g>
			<g>
				
					<rect x="6.894" y="131.758" transform="matrix(0.8231 -0.5679 0.5679 0.8231 -74.5928 30.5769)" style="fill:#FFFFFF;" width="9.775" height="6.514"/>
			</g>
		</g>
		<g>
			<g>
				
					<rect x="48.512" y="69.212" transform="matrix(0.8231 -0.5679 0.5679 0.8231 -27.093 57.965)" style="fill:#FFFFFF;" width="61.959" height="6.514"/>
			</g>
		</g>
		<g>
			<g>
				
					<rect x="6.765" y="102.532" transform="matrix(0.8231 -0.5679 0.5679 0.8231 -54.56 36.4341)" style="fill:#FFFFFF;" width="48.868" height="6.514"/>
			</g>
		</g>
		<g>
			<g>
				
					<rect x="13.753" y="64.776" transform="matrix(0.8231 -0.5679 0.5679 0.8231 -27.495 47.8039)" style="fill:#FFFFFF;" width="98.456" height="6.514"/>
			</g>
		</g>
		<g>
			<g>
				
					<rect x="59.806" y="37.403" transform="matrix(0.8231 -0.5679 0.5679 0.8231 -8.9886 52.4645)" style="fill:#FFFFFF;" width="39.818" height="6.514"/>
			</g>
		</g>
		<g>
			<g>
				
					<rect x="33.92" y="58.885" transform="matrix(0.8231 -0.5679 0.5679 0.8231 -26.6972 38.5831)" style="fill:#FFFFFF;" width="29.319" height="6.514"/>
			</g>
		</g>
		<g>
			<g>
				
					<rect x="46.521" y="28.704" transform="matrix(0.8231 -0.5679 0.5679 0.8231 -5.876 45.0584)" style="fill:#FFFFFF;" width="45.726" height="6.514"/>
			</g>
		</g>
		<g>
			<g>
				
					<rect x="59.915" y="11.504" transform="matrix(0.8231 -0.5679 0.5679 0.8231 4.2439 43.1451)" style="fill:#FFFFFF;" width="22.915" height="6.514"/>
			</g>
		</g>
	</g>
</g>
</svg>
